<svg width="40" height="40" viewBox="0 0 40 40" fill="none" xmlns="http://www.w3.org/2000/svg">
<path d="M40.0001 23.3356V16.6644L34.4279 15.7425C34.1282 14.7256 33.7202 13.7418 33.2117 12.8094L36.5009 8.21655L31.7835 3.49915L27.1906 6.78833C26.2583 6.27991 25.2744 5.87189 24.2576 5.5722L23.3356 0H16.6645L15.7426 5.5722C14.7257 5.87189 13.7418 6.27991 12.8095 6.78833L8.21661 3.49915L3.49921 8.21655L6.78839 12.8094C6.27997 13.7418 5.87195 14.7253 5.57227 15.7425L6.10352e-05 16.6644V23.3356L5.57227 24.2575C5.87195 25.2747 6.27997 26.2582 6.78839 27.1906L3.49921 31.7834L8.21661 36.5009L12.8095 33.2117C13.7418 33.7201 14.7254 34.1281 15.7426 34.4278L16.6645 40H23.3356L24.2573 34.4278C25.2744 34.1281 26.2583 33.7201 27.1906 33.2117L31.7835 36.5009L36.5006 31.7834L33.2117 27.1906C33.7202 26.2582 34.1282 25.2744 34.4279 24.2575L40.0001 23.3356ZM33.3985 23.5889C33.086 24.7586 32.6191 25.8847 32.0112 26.9351L31.8217 27.2626L34.9692 31.6577L31.6578 34.9692L28.1315 32.4442L30.3382 30.2374L29.5096 29.4089L26.872 32.0462C25.8396 32.6367 24.7358 33.092 23.5889 33.3984L23.2239 33.4958L22.3417 38.8281H17.6584L16.7762 33.4958L16.4112 33.3984C15.2411 33.0856 14.1154 32.619 13.0649 32.0111L12.7375 31.8219L8.34235 34.9692L5.03088 31.6577L7.55591 28.1317L9.60822 30.1837L10.4368 29.3552L7.95355 26.8719C7.36334 25.8395 6.90802 24.7357 6.60162 23.5889L6.50397 23.2239L1.17194 22.3416V17.6584L6.50427 16.7761L6.60162 16.4111C6.91443 15.2411 7.38104 14.1153 7.98895 13.0649L8.17816 12.7374L5.03088 8.34229L8.34235 5.03082L11.8683 7.55585L9.72327 9.70093L10.5518 10.5295L13.1278 7.9538C14.1605 7.36328 15.2643 6.90796 16.4109 6.60156L16.7762 6.50421L17.6584 1.17188H22.3417L23.2236 6.50421L23.5889 6.60156C24.7587 6.91406 25.8848 7.38098 26.9352 7.98889L27.2623 8.17841L31.6578 5.03082L34.9692 8.34229L31.8217 12.7374L32.0112 13.0649C32.6191 14.1153 33.0857 15.2414 33.3982 16.4111L33.4958 16.7761L38.8282 17.6584V22.3416L33.4958 23.2239L33.3985 23.5889Z" fill="#F2F2F2"/>
<path d="M20.0001 9.94849C14.4578 9.94849 9.94852 14.4578 9.94852 20.0001C9.94852 22.3783 10.7945 24.6854 12.3301 26.4969L13.224 25.7392C11.8675 24.1392 11.1204 22.1012 11.1204 20.0001C11.1204 15.1038 15.1039 11.1207 20.0001 11.1207C24.8963 11.1207 28.8798 15.1038 28.8798 20.0001C28.8798 24.8963 24.8963 28.8798 20.0001 28.8798C17.9023 28.8798 15.8665 28.1345 14.268 26.7817L13.5108 27.6765C15.3208 29.2078 17.6255 30.0513 20.0001 30.0513C25.5427 30.0513 30.0517 25.5424 30.0517 20.0001C30.0517 14.4575 25.5424 9.94849 20.0001 9.94849Z" fill="#F2F2F2"/>
<path d="M20.0001 14.7524C17.1067 14.7524 14.7526 17.1066 14.7526 19.9999C14.7526 22.8933 17.1067 25.2474 20.0001 25.2474C22.8934 25.2474 25.2476 22.8933 25.2476 19.9999C25.2476 17.1066 22.8934 14.7524 20.0001 14.7524ZM20.0001 24.0756C17.7527 24.0756 15.9244 22.2473 15.9244 19.9999C15.9244 17.7526 17.7527 15.9243 20.0001 15.9243C22.2474 15.9243 24.0757 17.7526 24.0757 19.9999C24.0757 22.2473 22.2474 24.0756 20.0001 24.0756Z" fill="#F2F2F2"/>
<path d="M24.022 7.54639L23.6612 8.66119C28.5975 10.2591 31.9141 14.8157 31.9141 20H33.086C33.086 17.1814 32.2001 14.4946 30.5237 12.2302C28.8816 10.0113 26.633 8.39142 24.022 7.54639Z" fill="#F2F2F2"/>
<path d="M21.2241 6.97083C20.8201 6.93329 20.4084 6.91406 20.0001 6.91406V8.08594C20.3721 8.08594 20.7471 8.10333 21.1152 8.13782L21.2241 6.97083Z" fill="#F2F2F2"/>
<path d="M23.2364 7.31915C22.8421 7.21844 22.4381 7.13544 22.0353 7.07227L21.8537 8.2301C22.2202 8.28748 22.5879 8.36316 22.9465 8.45471L23.2364 7.31915Z" fill="#F2F2F2"/>
<path d="M25.7263 25.7264C27.2537 24.199 28.0948 22.1656 28.0948 20.0001C28.0948 19.2823 28.0002 18.5682 27.8137 17.877L26.6825 18.1824C26.8421 18.7739 26.9229 19.3854 26.9229 20.0001C26.9229 21.8525 26.2039 23.592 24.8978 24.8978L25.7263 25.7264Z" fill="#F2F2F2"/>
<path d="M24.8978 15.1022C25.1526 15.3574 25.3891 15.6332 25.6 15.9225L26.5467 15.2319C26.3001 14.8938 26.0242 14.5715 25.7263 14.2737L24.8978 15.1022Z" fill="#F2F2F2"/>
<path d="M25.9928 16.5253C26.1728 16.8356 26.3294 17.1631 26.4588 17.4982L27.5519 17.0764C27.4009 16.6843 27.2175 16.301 27.0069 15.9375L25.9928 16.5253Z" fill="#F2F2F2"/>
</svg>
