<svg width="40" height="39" viewBox="0 0 40 39" fill="none" xmlns="http://www.w3.org/2000/svg">
<path d="M35.5254 11.3482L36.3433 10.3967L37.1405 11.0821C37.2478 11.1744 37.3844 11.2247 37.525 11.2247C37.5398 11.2247 37.5546 11.2241 37.5694 11.223C37.7253 11.2112 37.8703 11.138 37.9723 11.0194L39.2386 9.54637C39.451 9.29935 39.4229 8.92698 39.1759 8.71465L34.8204 4.97015C34.7017 4.86815 34.5475 4.81687 34.3915 4.82922C34.2355 4.84094 34.0906 4.91423 33.9886 5.03283L32.7222 6.50581C32.5099 6.75282 32.538 7.1252 32.785 7.33753L33.5821 8.0229L32.7015 9.04715C30.8978 7.89503 28.8451 7.09964 26.6437 6.76187V4.97966H28.675C29.6231 4.97966 30.3944 4.20834 30.3944 3.26022V1.8879C30.3944 0.939785 29.6231 0.168457 28.675 0.168457H19.8133C18.8652 0.168457 18.0939 0.939785 18.0939 1.8879V3.26022C18.0939 4.20834 18.8652 4.97966 19.8133 4.97966H21.8447V6.76187C19.5999 7.10632 17.51 7.92704 15.6807 9.11612L14.7409 8.0229L15.5381 7.33753C15.6567 7.23553 15.7299 7.09059 15.7417 6.93465C15.7534 6.7787 15.7027 6.6244 15.6007 6.50573L14.3344 5.03275C14.1219 4.78581 13.7497 4.75766 13.5026 4.97007L9.14716 8.71457C9.02857 8.81657 8.95535 8.9615 8.94355 9.11745C8.93184 9.2734 8.98248 9.4277 9.08448 9.54637L10.3509 11.0194C10.4675 11.155 10.6325 11.2246 10.7983 11.2246C10.9345 11.2246 11.0713 11.1777 11.1826 11.082L11.9797 10.3967L12.8752 11.4383C12.1003 12.2465 11.4107 13.1371 10.8204 14.0951C10.8005 14.0931 10.7803 14.0921 10.7598 14.0921H7.03505C6.70931 14.0921 6.44523 14.3562 6.44523 14.6819C6.44523 15.0076 6.70931 15.2717 7.03505 15.2717H10.1634C9.85282 15.8883 9.58166 16.5278 9.35305 17.1871H3.39358C3.06784 17.1871 2.80376 17.4512 2.80376 17.777C2.80376 18.1027 3.06784 18.3668 3.39358 18.3668H8.99499C8.78202 19.1844 8.63417 20.0278 8.55529 20.891H0.589882C0.264143 20.891 6.10352e-05 21.1551 6.10352e-05 21.4808C6.10352e-05 21.8065 0.264143 22.0706 0.589882 22.0706H8.49183C8.49034 22.1588 8.48845 22.2468 8.48845 22.3353C8.48845 23.1025 8.54468 23.8567 8.65116 24.5948H2.84308C2.51734 24.5948 2.25326 24.8589 2.25326 25.1846C2.25326 25.5104 2.51734 25.7745 2.84308 25.7745H8.86759C9.01386 26.4291 9.20064 27.0685 9.42587 27.6898H6.48455C6.15881 27.6898 5.89473 27.9539 5.89473 28.2796C5.89473 28.6054 6.15881 28.8694 6.48455 28.8694H9.90866C12.3961 34.3052 17.8861 38.0911 24.2443 38.0911C27.5651 38.0911 30.7413 37.07 33.4295 35.1382C33.6939 34.9481 33.7543 34.5795 33.5643 34.3151C33.3739 34.0504 33.0055 33.9903 32.741 34.1804C30.2547 35.9671 27.3166 36.9115 24.2443 36.9115C16.2069 36.9115 9.66809 30.3727 9.66809 22.3354C9.66809 14.298 16.2069 7.75921 24.2443 7.75921C28.135 7.75921 31.6745 9.29157 34.2912 11.7844C34.2966 11.79 34.3026 11.7952 34.3081 11.8007C37.087 14.4565 38.8204 18.1973 38.8204 22.3354C38.8204 26.2336 37.301 29.8972 34.5421 32.6513C34.3115 32.8815 34.3112 33.2549 34.5414 33.4855C34.7715 33.716 35.145 33.7164 35.3755 33.4862C38.3577 30.5092 40.0001 26.5491 40.0001 22.3353C40.0001 18.066 38.2925 14.1887 35.5254 11.3482ZM34.4987 6.24912L37.9597 9.22457L37.4623 9.80298L34.0014 6.82753L34.4987 6.24912ZM34.4767 8.79195L35.4488 9.62769L34.6703 10.5333C34.3502 10.2502 34.0191 9.97922 33.6767 9.72245L34.4767 8.79195ZM21.6358 3.80002V1.3481H22.5883V3.80002H21.6358ZM23.768 1.3481H24.7205V3.80002H23.768V1.3481ZM25.9001 3.80002V1.3481H26.8527V3.80002H25.9001ZM29.2149 1.8879V3.26022C29.2149 3.55788 28.9728 3.80002 28.6752 3.80002H28.0324V1.3481H28.6752C28.9728 1.3481 29.2149 1.59024 29.2149 1.8879ZM19.2736 3.26022V1.8879C19.2736 1.59024 19.5157 1.3481 19.8134 1.3481H20.4562V3.80002H19.8134C19.5157 3.80002 19.2736 3.55788 19.2736 3.26022ZM10.8608 9.80306L10.3635 9.22464L13.8244 6.24919L14.3217 6.82761L13.5247 7.51291C13.5247 7.51291 13.5246 7.51298 13.5245 7.51298L11.6579 9.11777C11.6578 9.11785 11.6578 9.11785 11.6578 9.11793L10.8608 9.80306ZM12.8919 9.61251L13.8463 8.79195L14.7121 9.79897C14.3718 10.0583 14.0422 10.331 13.7244 10.6166L12.8742 9.62777L12.8919 9.61251ZM23.0244 6.62629V4.97966H25.4641V6.62637C25.0615 6.59538 24.6547 6.57949 24.2442 6.57949C23.8338 6.57949 23.427 6.59538 23.0244 6.62629Z" fill="#F2F2F2"/>
</svg>
