<svg width="205" height="97" viewBox="0 0 205 97" fill="none" xmlns="http://www.w3.org/2000/svg">
<path d="M75.9151 28.4018L52.3548 82.9127L16.927 35.2534L75.9151 28.4018Z" fill="white"/>
<path d="M73.9036 62.5146L52.3844 82.843L16.9567 35.1837L73.9036 62.5146Z" fill="url(#paint0_linear)"/>
<path d="M114.43 42.5714H113.349L105.993 31.6202V42.5714H104.903V29.7745H105.993L113.358 40.7345V29.7745H114.43V42.5714ZM123.439 42.5714C123.334 42.2726 123.266 41.8302 123.237 41.2442C122.868 41.7247 122.396 42.0968 121.822 42.3605C121.254 42.6183 120.65 42.7472 120.011 42.7472C119.097 42.7472 118.356 42.4923 117.788 41.9825C117.225 41.4728 116.944 40.8282 116.944 40.0489C116.944 39.1232 117.328 38.3907 118.095 37.8517C118.869 37.3126 119.944 37.0431 121.321 37.0431H123.228V35.962C123.228 35.2823 123.017 34.7491 122.595 34.3624C122.179 33.9698 121.57 33.7735 120.767 33.7735C120.035 33.7735 119.428 33.961 118.948 34.336C118.467 34.711 118.227 35.1622 118.227 35.6896L117.173 35.6808C117.173 34.9249 117.524 34.2716 118.227 33.7208C118.93 33.1642 119.795 32.8858 120.82 32.8858C121.881 32.8858 122.715 33.1525 123.325 33.6857C123.94 34.213 124.257 34.9513 124.274 35.9005V40.4005C124.274 41.3204 124.371 42.0089 124.564 42.4659V42.5714H123.439ZM120.134 41.8155C120.838 41.8155 121.465 41.6456 122.015 41.3058C122.572 40.9659 122.976 40.5118 123.228 39.9435V37.8517H121.347C120.298 37.8634 119.478 38.0567 118.886 38.4317C118.295 38.8009 117.999 39.3107 117.999 39.961C117.999 40.4942 118.195 40.9366 118.588 41.2882C118.986 41.6398 119.502 41.8155 120.134 41.8155ZM128.045 33.0616L128.08 34.6085C128.431 34.0343 128.871 33.6036 129.398 33.3165C129.925 33.0294 130.511 32.8858 131.156 32.8858C132.656 32.8858 133.608 33.5011 134.012 34.7316C134.352 34.1398 134.806 33.6857 135.375 33.3692C135.943 33.047 136.57 32.8858 137.256 32.8858C139.295 32.8858 140.335 33.9991 140.376 36.2257V42.5714H139.321V36.3048C139.315 35.4552 139.131 34.8253 138.767 34.4151C138.41 34.005 137.824 33.7999 137.009 33.7999C136.254 33.8116 135.615 34.0577 135.093 34.5382C134.572 35.0128 134.282 35.5929 134.223 36.2784V42.5714H133.169V36.2257C133.163 35.4112 132.969 34.8048 132.589 34.4064C132.214 34.0021 131.633 33.7999 130.848 33.7999C130.186 33.7999 129.618 33.9903 129.143 34.3712C128.669 34.7462 128.317 35.3058 128.089 36.0499V42.5714H127.034V33.0616H128.045ZM146.73 42.7472C145.922 42.7472 145.189 42.548 144.533 42.1495C143.882 41.7511 143.376 41.1974 143.012 40.4884C142.649 39.7735 142.467 38.9737 142.467 38.089V37.711C142.467 36.797 142.643 35.9737 142.995 35.2413C143.352 34.5089 143.847 33.9347 144.48 33.5187C145.113 33.0968 145.798 32.8858 146.537 32.8858C147.691 32.8858 148.605 33.2814 149.279 34.0724C149.959 34.8575 150.298 35.9327 150.298 37.298V37.8868H143.513V38.089C143.513 39.1671 143.821 40.0665 144.436 40.7872C145.057 41.5021 145.837 41.8595 146.774 41.8595C147.337 41.8595 147.832 41.7569 148.259 41.5519C148.693 41.3468 149.086 41.0187 149.437 40.5675L150.096 41.0685C149.323 42.1876 148.201 42.7472 146.73 42.7472ZM146.537 33.7823C145.746 33.7823 145.078 34.0724 144.533 34.6525C143.994 35.2325 143.666 36.0118 143.548 36.9903H149.253V36.8761C149.223 35.962 148.963 35.2179 148.47 34.6437C147.978 34.0694 147.334 33.7823 146.537 33.7823ZM108.173 62.8595C108.905 62.8595 109.517 62.6544 110.009 62.2442C110.507 61.8282 110.777 61.2921 110.818 60.6358H111.829C111.799 61.2159 111.618 61.7462 111.284 62.2267C110.95 62.7013 110.505 63.0733 109.948 63.3429C109.397 63.6124 108.805 63.7472 108.173 63.7472C106.924 63.7472 105.934 63.3136 105.202 62.4464C104.475 61.5792 104.112 60.4132 104.112 58.9483V58.6319C104.112 57.6944 104.276 56.8653 104.604 56.1446C104.932 55.4239 105.401 54.8673 106.01 54.4747C106.626 54.0821 107.343 53.8858 108.164 53.8858C109.207 53.8858 110.065 54.1964 110.739 54.8175C111.419 55.4386 111.782 56.256 111.829 57.2696H110.818C110.771 56.5255 110.502 55.9249 110.009 55.4679C109.523 55.0108 108.908 54.7823 108.164 54.7823C107.215 54.7823 106.476 55.1251 105.949 55.8107C105.427 56.4962 105.167 57.4571 105.167 58.6935V59.0011C105.167 60.214 105.427 61.1603 105.949 61.84C106.476 62.5196 107.217 62.8595 108.173 62.8595ZM113.358 58.6759C113.358 57.7618 113.534 56.9386 113.885 56.2062C114.243 55.4737 114.744 54.9054 115.388 54.5011C116.039 54.0909 116.774 53.8858 117.594 53.8858C118.86 53.8858 119.885 54.3312 120.671 55.2218C121.456 56.1066 121.848 57.2814 121.848 58.7462V58.9659C121.848 59.8858 121.67 60.715 121.312 61.4532C120.961 62.1857 120.463 62.7511 119.818 63.1495C119.173 63.548 118.438 63.7472 117.612 63.7472C116.352 63.7472 115.327 63.3048 114.536 62.42C113.751 61.5294 113.358 60.3517 113.358 58.8868V58.6759ZM114.413 58.9659C114.413 60.1026 114.706 61.0372 115.292 61.7696C115.883 62.4962 116.657 62.8595 117.612 62.8595C118.561 62.8595 119.329 62.4962 119.915 61.7696C120.507 61.0372 120.802 60.0733 120.802 58.878V58.6759C120.802 57.9493 120.668 57.2843 120.398 56.6808C120.129 56.0773 119.751 55.6114 119.264 55.2833C118.778 54.9493 118.221 54.7823 117.594 54.7823C116.657 54.7823 115.892 55.1515 115.3 55.8898C114.709 56.6222 114.413 57.5831 114.413 58.7726V58.9659ZM124.986 54.0616L125.021 55.6085C125.373 55.0343 125.812 54.6036 126.34 54.3165C126.867 54.0294 127.453 53.8858 128.097 53.8858C129.597 53.8858 130.549 54.5011 130.954 55.7316C131.294 55.1398 131.748 54.6857 132.316 54.3692C132.884 54.047 133.511 53.8858 134.197 53.8858C136.236 53.8858 137.276 54.9991 137.317 57.2257V63.5714H136.262V57.3048C136.257 56.4552 136.072 55.8253 135.709 55.4151C135.351 55.005 134.765 54.7999 133.951 54.7999C133.195 54.8116 132.556 55.0577 132.035 55.5382C131.513 56.0128 131.223 56.5929 131.165 57.2784V63.5714H130.11V57.2257C130.104 56.4112 129.911 55.8048 129.53 55.4064C129.155 55.0021 128.575 54.7999 127.79 54.7999C127.128 54.7999 126.559 54.9903 126.085 55.3712C125.61 55.7462 125.258 56.3058 125.03 57.0499V63.5714H123.975V54.0616H124.986ZM147.635 58.9132C147.635 60.3956 147.307 61.5733 146.651 62.4464C145.995 63.3136 145.116 63.7472 144.014 63.7472C142.714 63.7472 141.717 63.2901 141.026 62.3761V67.2276H139.98V54.0616H140.956L141.008 55.4064C141.694 54.3927 142.687 53.8858 143.988 53.8858C145.125 53.8858 146.015 54.3165 146.66 55.1778C147.31 56.0392 147.635 57.2345 147.635 58.7638V58.9132ZM146.581 58.7286C146.581 57.5157 146.332 56.5577 145.834 55.8546C145.336 55.1515 144.641 54.7999 143.751 54.7999C143.106 54.7999 142.552 54.9552 142.09 55.2657C141.627 55.5763 141.272 56.0275 141.026 56.6192V61.1808C141.278 61.7257 141.638 62.1417 142.107 62.4288C142.576 62.7159 143.13 62.8595 143.768 62.8595C144.653 62.8595 145.341 62.5079 145.834 61.8048C146.332 61.0958 146.581 60.0704 146.581 58.7286ZM155.976 63.5714C155.871 63.2726 155.803 62.8302 155.774 62.2442C155.405 62.7247 154.933 63.0968 154.359 63.3605C153.791 63.6183 153.187 63.7472 152.548 63.7472C151.634 63.7472 150.893 63.4923 150.325 62.9825C149.762 62.4728 149.481 61.8282 149.481 61.0489C149.481 60.1232 149.865 59.3907 150.632 58.8517C151.406 58.3126 152.481 58.0431 153.858 58.0431H155.765V56.962C155.765 56.2823 155.554 55.7491 155.132 55.3624C154.716 54.9698 154.107 54.7735 153.304 54.7735C152.572 54.7735 151.965 54.961 151.485 55.336C151.005 55.711 150.764 56.1622 150.764 56.6896L149.71 56.6808C149.71 55.9249 150.061 55.2716 150.764 54.7208C151.467 54.1642 152.332 53.8858 153.357 53.8858C154.418 53.8858 155.253 54.1525 155.862 54.6857C156.477 55.213 156.794 55.9513 156.811 56.9005V61.4005C156.811 62.3204 156.908 63.0089 157.101 63.4659V63.5714H155.976ZM152.672 62.8155C153.375 62.8155 154.002 62.6456 154.552 62.3058C155.109 61.9659 155.513 61.5118 155.765 60.9435V58.8517H153.884C152.836 58.8634 152.015 59.0567 151.423 59.4317C150.832 59.8009 150.536 60.3107 150.536 60.961C150.536 61.4942 150.732 61.9366 151.125 62.2882C151.523 62.6398 152.039 62.8155 152.672 62.8155ZM160.626 54.0616L160.661 55.6876C161.018 55.1017 161.464 54.6564 161.997 54.3517C162.53 54.0411 163.119 53.8858 163.763 53.8858C164.783 53.8858 165.542 54.173 166.04 54.7472C166.538 55.3214 166.79 56.1827 166.796 57.3312V63.5714H165.75V57.3224C165.744 56.4728 165.562 55.84 165.205 55.4239C164.853 55.0079 164.288 54.7999 163.508 54.7999C162.858 54.7999 162.281 55.005 161.777 55.4151C161.279 55.8194 160.91 56.3673 160.67 57.0587V63.5714H159.624V54.0616H160.626ZM172.535 62.0597L175.312 54.0616H176.446L172.385 65.1886L172.174 65.6808C171.653 66.8351 170.847 67.4122 169.757 67.4122C169.506 67.4122 169.236 67.3712 168.949 67.2892L168.94 66.4191L169.485 66.4718C170.001 66.4718 170.417 66.3429 170.733 66.0851C171.055 65.8331 171.328 65.3966 171.55 64.7755L172.016 63.4923L168.43 54.0616H169.582L172.535 62.0597Z" fill="#F2F2F2"/>
<defs>
<linearGradient id="paint0_linear" x1="71.743" y1="44.7713" x2="23.743" y2="62.5999" gradientUnits="userSpaceOnUse">
<stop stop-color="#FC4D36"/>
<stop offset="1" stop-color="#DD2476"/>
</linearGradient>
</defs>
</svg>
