<svg width="199" height="198" viewBox="0 0 199 198" fill="none" xmlns="http://www.w3.org/2000/svg">
<g opacity="0.25">
<circle cx="2.5" cy="1.5" r="1.5" fill="#32B7F0"/>
<circle cx="106.5" cy="1.5" r="1.5" fill="#32B7F0"/>
<circle cx="106.5" cy="105.5" r="1.5" fill="#32B7F0"/>
<circle cx="1.5" cy="105.5" r="1.5" fill="#32B7F0"/>
<circle cx="54.5" cy="1.5" r="1.5" fill="#32B7F0"/>
<circle cx="158.5" cy="1.5" r="1.5" fill="#32B7F0"/>
<circle cx="158.5" cy="105.5" r="1.5" fill="#32B7F0"/>
<circle cx="53.5" cy="105.5" r="1.5" fill="#32B7F0"/>
<circle cx="54.5" cy="53.5" r="1.5" fill="#32B7F0"/>
<circle cx="158.5" cy="53.5" r="1.5" fill="#32B7F0"/>
<circle cx="158.5" cy="157.5" r="1.5" fill="#32B7F0"/>
<circle cx="53.5" cy="157.5" r="1.5" fill="#32B7F0"/>
<circle cx="2.5" cy="53.5" r="1.5" fill="#32B7F0"/>
<circle cx="106.5" cy="53.5" r="1.5" fill="#32B7F0"/>
<circle cx="106.5" cy="157.5" r="1.5" fill="#32B7F0"/>
<circle cx="1.5" cy="157.5" r="1.5" fill="#32B7F0"/>
<circle cx="2.5" cy="27.5" r="1.5" fill="#32B7F0"/>
<circle cx="106.5" cy="27.5" r="1.5" fill="#32B7F0"/>
<circle cx="106.5" cy="131.5" r="1.5" fill="#32B7F0"/>
<circle cx="1.5" cy="131.5" r="1.5" fill="#32B7F0"/>
<circle cx="54.5" cy="27.5" r="1.5" fill="#32B7F0"/>
<circle cx="158.5" cy="27.5" r="1.5" fill="#32B7F0"/>
<circle cx="158.5" cy="131.5" r="1.5" fill="#32B7F0"/>
<circle cx="53.5" cy="131.5" r="1.5" fill="#32B7F0"/>
<circle cx="54.5" cy="79.5" r="1.5" fill="#32B7F0"/>
<circle cx="158.5" cy="79.5" r="1.5" fill="#32B7F0"/>
<circle cx="158.5" cy="183.5" r="1.5" fill="#32B7F0"/>
<circle cx="53.5" cy="183.5" r="1.5" fill="#32B7F0"/>
<circle cx="2.5" cy="79.5" r="1.5" fill="#32B7F0"/>
<circle cx="106.5" cy="79.5" r="1.5" fill="#32B7F0"/>
<circle cx="106.5" cy="183.5" r="1.5" fill="#32B7F0"/>
<circle cx="1.5" cy="183.5" r="1.5" fill="#32B7F0"/>
<circle cx="28.5" cy="1.5" r="1.5" fill="#32B7F0"/>
<circle cx="132.5" cy="1.5" r="1.5" fill="#32B7F0"/>
<circle cx="132.5" cy="105.5" r="1.5" fill="#32B7F0"/>
<circle cx="27.5" cy="105.5" r="1.5" fill="#32B7F0"/>
<circle cx="80.5" cy="1.5" r="1.5" fill="#32B7F0"/>
<circle cx="184.5" cy="1.5" r="1.5" fill="#32B7F0"/>
<circle cx="184.5" cy="105.5" r="1.5" fill="#32B7F0"/>
<circle cx="79.5" cy="105.5" r="1.5" fill="#32B7F0"/>
<circle cx="80.5" cy="53.5" r="1.5" fill="#32B7F0"/>
<circle cx="184.5" cy="53.5" r="1.5" fill="#32B7F0"/>
<circle cx="184.5" cy="157.5" r="1.5" fill="#32B7F0"/>
<circle cx="79.5" cy="157.5" r="1.5" fill="#32B7F0"/>
<circle cx="28.5" cy="53.5" r="1.5" fill="#32B7F0"/>
<circle cx="132.5" cy="53.5" r="1.5" fill="#32B7F0"/>
<circle cx="132.5" cy="157.5" r="1.5" fill="#32B7F0"/>
<circle cx="27.5" cy="157.5" r="1.5" fill="#32B7F0"/>
<circle cx="28.5" cy="27.5" r="1.5" fill="#32B7F0"/>
<circle cx="132.5" cy="27.5" r="1.5" fill="#32B7F0"/>
<circle cx="132.5" cy="131.5" r="1.5" fill="#32B7F0"/>
<circle cx="27.5" cy="131.5" r="1.5" fill="#32B7F0"/>
<circle cx="80.5" cy="27.5" r="1.5" fill="#32B7F0"/>
<circle cx="184.5" cy="27.5" r="1.5" fill="#32B7F0"/>
<circle cx="184.5" cy="131.5" r="1.5" fill="#32B7F0"/>
<circle cx="79.5" cy="131.5" r="1.5" fill="#32B7F0"/>
<circle cx="80.5" cy="79.5" r="1.5" fill="#32B7F0"/>
<circle cx="184.5" cy="79.5" r="1.5" fill="#32B7F0"/>
<circle cx="184.5" cy="183.5" r="1.5" fill="#32B7F0"/>
<circle cx="79.5" cy="183.5" r="1.5" fill="#32B7F0"/>
<circle cx="28.5" cy="79.5" r="1.5" fill="#32B7F0"/>
<circle cx="132.5" cy="79.5" r="1.5" fill="#32B7F0"/>
<circle cx="132.5" cy="183.5" r="1.5" fill="#32B7F0"/>
<circle cx="27.5" cy="183.5" r="1.5" fill="#32B7F0"/>
<circle cx="2.5" cy="14.5" r="1.5" fill="#32B7F0"/>
<circle cx="106.5" cy="14.5" r="1.5" fill="#32B7F0"/>
<circle cx="106.5" cy="118.5" r="1.5" fill="#32B7F0"/>
<circle cx="1.5" cy="118.5" r="1.5" fill="#32B7F0"/>
<circle cx="54.5" cy="14.5" r="1.5" fill="#32B7F0"/>
<circle cx="158.5" cy="14.5" r="1.5" fill="#32B7F0"/>
<circle cx="158.5" cy="118.5" r="1.5" fill="#32B7F0"/>
<circle cx="53.5" cy="118.5" r="1.5" fill="#32B7F0"/>
<circle cx="54.5" cy="66.5" r="1.5" fill="#32B7F0"/>
<circle cx="158.5" cy="66.5" r="1.5" fill="#32B7F0"/>
<circle cx="158.5" cy="170.5" r="1.5" fill="#32B7F0"/>
<circle cx="53.5" cy="170.5" r="1.5" fill="#32B7F0"/>
<circle cx="2.5" cy="66.5" r="1.5" fill="#32B7F0"/>
<circle cx="106.5" cy="66.5" r="1.5" fill="#32B7F0"/>
<circle cx="106.5" cy="170.5" r="1.5" fill="#32B7F0"/>
<circle cx="1.5" cy="170.5" r="1.5" fill="#32B7F0"/>
<circle cx="2.5" cy="40.5" r="1.5" fill="#32B7F0"/>
<circle cx="106.5" cy="40.5" r="1.5" fill="#32B7F0"/>
<circle cx="106.5" cy="144.5" r="1.5" fill="#32B7F0"/>
<circle cx="1.5" cy="144.5" r="1.5" fill="#32B7F0"/>
<circle cx="54.5" cy="40.5" r="1.5" fill="#32B7F0"/>
<circle cx="158.5" cy="40.5" r="1.5" fill="#32B7F0"/>
<circle cx="158.5" cy="144.5" r="1.5" fill="#32B7F0"/>
<circle cx="53.5" cy="144.5" r="1.5" fill="#32B7F0"/>
<circle cx="54.5" cy="92.5" r="1.5" fill="#32B7F0"/>
<circle cx="158.5" cy="92.5" r="1.5" fill="#32B7F0"/>
<circle cx="158.5" cy="196.5" r="1.5" fill="#32B7F0"/>
<circle cx="53.5" cy="196.5" r="1.5" fill="#32B7F0"/>
<circle cx="2.5" cy="92.5" r="1.5" fill="#32B7F0"/>
<circle cx="106.5" cy="92.5" r="1.5" fill="#32B7F0"/>
<circle cx="106.5" cy="196.5" r="1.5" fill="#32B7F0"/>
<circle cx="1.5" cy="196.5" r="1.5" fill="#32B7F0"/>
<circle cx="28.5" cy="14.5" r="1.5" fill="#32B7F0"/>
<circle cx="132.5" cy="14.5" r="1.5" fill="#32B7F0"/>
<circle cx="132.5" cy="118.5" r="1.5" fill="#32B7F0"/>
<circle cx="27.5" cy="118.5" r="1.5" fill="#32B7F0"/>
<circle cx="80.5" cy="14.5" r="1.5" fill="#32B7F0"/>
<circle cx="184.5" cy="14.5" r="1.5" fill="#32B7F0"/>
<circle cx="184.5" cy="118.5" r="1.5" fill="#32B7F0"/>
<circle cx="79.5" cy="118.5" r="1.5" fill="#32B7F0"/>
<circle cx="80.5" cy="66.5" r="1.5" fill="#32B7F0"/>
<circle cx="184.5" cy="66.5" r="1.5" fill="#32B7F0"/>
<circle cx="184.5" cy="170.5" r="1.5" fill="#32B7F0"/>
<circle cx="79.5" cy="170.5" r="1.5" fill="#32B7F0"/>
<circle cx="28.5" cy="66.5" r="1.5" fill="#32B7F0"/>
<circle cx="132.5" cy="66.5" r="1.5" fill="#32B7F0"/>
<circle cx="132.5" cy="170.5" r="1.5" fill="#32B7F0"/>
<circle cx="27.5" cy="170.5" r="1.5" fill="#32B7F0"/>
<circle cx="28.5" cy="40.5" r="1.5" fill="#32B7F0"/>
<circle cx="132.5" cy="40.5" r="1.5" fill="#32B7F0"/>
<circle cx="132.5" cy="144.5" r="1.5" fill="#32B7F0"/>
<circle cx="27.5" cy="144.5" r="1.5" fill="#32B7F0"/>
<circle cx="80.5" cy="40.5" r="1.5" fill="#32B7F0"/>
<circle cx="184.5" cy="40.5" r="1.5" fill="#32B7F0"/>
<circle cx="184.5" cy="144.5" r="1.5" fill="#32B7F0"/>
<circle cx="79.5" cy="144.5" r="1.5" fill="#32B7F0"/>
<circle cx="80.5" cy="92.5" r="1.5" fill="#32B7F0"/>
<circle cx="184.5" cy="92.5" r="1.5" fill="#32B7F0"/>
<circle cx="184.5" cy="196.5" r="1.5" fill="#32B7F0"/>
<circle cx="79.5" cy="196.5" r="1.5" fill="#32B7F0"/>
<circle cx="28.5" cy="92.5" r="1.5" fill="#32B7F0"/>
<circle cx="132.5" cy="92.5" r="1.5" fill="#32B7F0"/>
<circle cx="132.5" cy="196.5" r="1.5" fill="#32B7F0"/>
<circle cx="27.5" cy="196.5" r="1.5" fill="#32B7F0"/>
<circle cx="15.5" cy="1.5" r="1.5" fill="#32B7F0"/>
<circle cx="119.5" cy="1.5" r="1.5" fill="#32B7F0"/>
<circle cx="119.5" cy="105.5" r="1.5" fill="#32B7F0"/>
<circle cx="14.5" cy="105.5" r="1.5" fill="#32B7F0"/>
<circle cx="67.5" cy="1.5" r="1.5" fill="#32B7F0"/>
<circle cx="171.5" cy="1.5" r="1.5" fill="#32B7F0"/>
<circle cx="171.5" cy="105.5" r="1.5" fill="#32B7F0"/>
<circle cx="66.5" cy="105.5" r="1.5" fill="#32B7F0"/>
<circle cx="67.5" cy="53.5" r="1.5" fill="#32B7F0"/>
<circle cx="171.5" cy="53.5" r="1.5" fill="#32B7F0"/>
<circle cx="171.5" cy="157.5" r="1.5" fill="#32B7F0"/>
<circle cx="66.5" cy="157.5" r="1.5" fill="#32B7F0"/>
<circle cx="15.5" cy="53.5" r="1.5" fill="#32B7F0"/>
<circle cx="119.5" cy="53.5" r="1.5" fill="#32B7F0"/>
<circle cx="119.5" cy="157.5" r="1.5" fill="#32B7F0"/>
<circle cx="14.5" cy="157.5" r="1.5" fill="#32B7F0"/>
<circle cx="15.5" cy="27.5" r="1.5" fill="#32B7F0"/>
<circle cx="119.5" cy="27.5" r="1.5" fill="#32B7F0"/>
<circle cx="119.5" cy="131.5" r="1.5" fill="#32B7F0"/>
<circle cx="14.5" cy="131.5" r="1.5" fill="#32B7F0"/>
<circle cx="67.5" cy="27.5" r="1.5" fill="#32B7F0"/>
<circle cx="171.5" cy="27.5" r="1.5" fill="#32B7F0"/>
<circle cx="171.5" cy="131.5" r="1.5" fill="#32B7F0"/>
<circle cx="66.5" cy="131.5" r="1.5" fill="#32B7F0"/>
<circle cx="67.5" cy="79.5" r="1.5" fill="#32B7F0"/>
<circle cx="171.5" cy="79.5" r="1.5" fill="#32B7F0"/>
<circle cx="171.5" cy="183.5" r="1.5" fill="#32B7F0"/>
<circle cx="66.5" cy="183.5" r="1.5" fill="#32B7F0"/>
<circle cx="15.5" cy="79.5" r="1.5" fill="#32B7F0"/>
<circle cx="119.5" cy="79.5" r="1.5" fill="#32B7F0"/>
<circle cx="119.5" cy="183.5" r="1.5" fill="#32B7F0"/>
<circle cx="14.5" cy="183.5" r="1.5" fill="#32B7F0"/>
<circle cx="41.5" cy="1.5" r="1.5" fill="#32B7F0"/>
<circle cx="145.5" cy="1.5" r="1.5" fill="#32B7F0"/>
<circle cx="145.5" cy="105.5" r="1.5" fill="#32B7F0"/>
<circle cx="40.5" cy="105.5" r="1.5" fill="#32B7F0"/>
<circle cx="93.5" cy="1.5" r="1.5" fill="#32B7F0"/>
<circle cx="197.5" cy="1.5" r="1.5" fill="#32B7F0"/>
<circle cx="197.5" cy="105.5" r="1.5" fill="#32B7F0"/>
<circle cx="92.5" cy="105.5" r="1.5" fill="#32B7F0"/>
<circle cx="93.5" cy="53.5" r="1.5" fill="#32B7F0"/>
<circle cx="197.5" cy="53.5" r="1.5" fill="#32B7F0"/>
<circle cx="197.5" cy="157.5" r="1.5" fill="#32B7F0"/>
<circle cx="92.5" cy="157.5" r="1.5" fill="#32B7F0"/>
<circle cx="41.5" cy="53.5" r="1.5" fill="#32B7F0"/>
<circle cx="145.5" cy="53.5" r="1.5" fill="#32B7F0"/>
<circle cx="145.5" cy="157.5" r="1.5" fill="#32B7F0"/>
<circle cx="40.5" cy="157.5" r="1.5" fill="#32B7F0"/>
<circle cx="41.5" cy="27.5" r="1.5" fill="#32B7F0"/>
<circle cx="145.5" cy="27.5" r="1.5" fill="#32B7F0"/>
<circle cx="145.5" cy="131.5" r="1.5" fill="#32B7F0"/>
<circle cx="40.5" cy="131.5" r="1.5" fill="#32B7F0"/>
<circle cx="93.5" cy="27.5" r="1.5" fill="#32B7F0"/>
<circle cx="197.5" cy="27.5" r="1.5" fill="#32B7F0"/>
<circle cx="197.5" cy="131.5" r="1.5" fill="#32B7F0"/>
<circle cx="92.5" cy="131.5" r="1.5" fill="#32B7F0"/>
<circle cx="93.5" cy="79.5" r="1.5" fill="#32B7F0"/>
<circle cx="197.5" cy="79.5" r="1.5" fill="#32B7F0"/>
<circle cx="197.5" cy="183.5" r="1.5" fill="#32B7F0"/>
<circle cx="92.5" cy="183.5" r="1.5" fill="#32B7F0"/>
<circle cx="41.5" cy="79.5" r="1.5" fill="#32B7F0"/>
<circle cx="145.5" cy="79.5" r="1.5" fill="#32B7F0"/>
<circle cx="145.5" cy="183.5" r="1.5" fill="#32B7F0"/>
<circle cx="40.5" cy="183.5" r="1.5" fill="#32B7F0"/>
<circle cx="15.5" cy="14.5" r="1.5" fill="#32B7F0"/>
<circle cx="119.5" cy="14.5" r="1.5" fill="#32B7F0"/>
<circle cx="119.5" cy="118.5" r="1.5" fill="#32B7F0"/>
<circle cx="14.5" cy="118.5" r="1.5" fill="#32B7F0"/>
<circle cx="67.5" cy="14.5" r="1.5" fill="#32B7F0"/>
<circle cx="171.5" cy="14.5" r="1.5" fill="#32B7F0"/>
<circle cx="171.5" cy="118.5" r="1.5" fill="#32B7F0"/>
<circle cx="66.5" cy="118.5" r="1.5" fill="#32B7F0"/>
<circle cx="67.5" cy="66.5" r="1.5" fill="#32B7F0"/>
<circle cx="171.5" cy="66.5" r="1.5" fill="#32B7F0"/>
<circle cx="171.5" cy="170.5" r="1.5" fill="#32B7F0"/>
<circle cx="66.5" cy="170.5" r="1.5" fill="#32B7F0"/>
<circle cx="15.5" cy="66.5" r="1.5" fill="#32B7F0"/>
<circle cx="119.5" cy="66.5" r="1.5" fill="#32B7F0"/>
<circle cx="119.5" cy="170.5" r="1.5" fill="#32B7F0"/>
<circle cx="14.5" cy="170.5" r="1.5" fill="#32B7F0"/>
<circle cx="15.5" cy="40.5" r="1.5" fill="#32B7F0"/>
<circle cx="119.5" cy="40.5" r="1.5" fill="#32B7F0"/>
<circle cx="119.5" cy="144.5" r="1.5" fill="#32B7F0"/>
<circle cx="14.5" cy="144.5" r="1.5" fill="#32B7F0"/>
<circle cx="67.5" cy="40.5" r="1.5" fill="#32B7F0"/>
<circle cx="171.5" cy="40.5" r="1.5" fill="#32B7F0"/>
<circle cx="171.5" cy="144.5" r="1.5" fill="#32B7F0"/>
<circle cx="66.5" cy="144.5" r="1.5" fill="#32B7F0"/>
<circle cx="67.5" cy="92.5" r="1.5" fill="#32B7F0"/>
<circle cx="171.5" cy="92.5" r="1.5" fill="#32B7F0"/>
<circle cx="171.5" cy="196.5" r="1.5" fill="#32B7F0"/>
<circle cx="66.5" cy="196.5" r="1.5" fill="#32B7F0"/>
<circle cx="15.5" cy="92.5" r="1.5" fill="#32B7F0"/>
<circle cx="119.5" cy="92.5" r="1.5" fill="#32B7F0"/>
<circle cx="119.5" cy="196.5" r="1.5" fill="#32B7F0"/>
<circle cx="14.5" cy="196.5" r="1.5" fill="#32B7F0"/>
<circle cx="41.5" cy="14.5" r="1.5" fill="#32B7F0"/>
<circle cx="145.5" cy="14.5" r="1.5" fill="#32B7F0"/>
<circle cx="145.5" cy="118.5" r="1.5" fill="#32B7F0"/>
<circle cx="40.5" cy="118.5" r="1.5" fill="#32B7F0"/>
<circle cx="93.5" cy="14.5" r="1.5" fill="#32B7F0"/>
<circle cx="197.5" cy="14.5" r="1.5" fill="#32B7F0"/>
<circle cx="197.5" cy="118.5" r="1.5" fill="#32B7F0"/>
<circle cx="92.5" cy="118.5" r="1.5" fill="#32B7F0"/>
<circle cx="93.5" cy="66.5" r="1.5" fill="#32B7F0"/>
<circle cx="197.5" cy="66.5" r="1.5" fill="#32B7F0"/>
<circle cx="197.5" cy="170.5" r="1.5" fill="#32B7F0"/>
<circle cx="92.5" cy="170.5" r="1.5" fill="#32B7F0"/>
<circle cx="41.5" cy="66.5" r="1.5" fill="#32B7F0"/>
<circle cx="145.5" cy="66.5" r="1.5" fill="#32B7F0"/>
<circle cx="145.5" cy="170.5" r="1.5" fill="#32B7F0"/>
<circle cx="40.5" cy="170.5" r="1.5" fill="#32B7F0"/>
<circle cx="41.5" cy="40.5" r="1.5" fill="#32B7F0"/>
<circle cx="145.5" cy="40.5" r="1.5" fill="#32B7F0"/>
<circle cx="145.5" cy="144.5" r="1.5" fill="#32B7F0"/>
<circle cx="40.5" cy="144.5" r="1.5" fill="#32B7F0"/>
<circle cx="93.5" cy="40.5" r="1.5" fill="#32B7F0"/>
<circle cx="197.5" cy="40.5" r="1.5" fill="#32B7F0"/>
<circle cx="197.5" cy="144.5" r="1.5" fill="#32B7F0"/>
<circle cx="92.5" cy="144.5" r="1.5" fill="#32B7F0"/>
<circle cx="93.5" cy="92.5" r="1.5" fill="#32B7F0"/>
<circle cx="197.5" cy="92.5" r="1.5" fill="#32B7F0"/>
<circle cx="197.5" cy="196.5" r="1.5" fill="#32B7F0"/>
<circle cx="92.5" cy="196.5" r="1.5" fill="#32B7F0"/>
<circle cx="41.5" cy="92.5" r="1.5" fill="#32B7F0"/>
<circle cx="145.5" cy="92.5" r="1.5" fill="#32B7F0"/>
<circle cx="145.5" cy="196.5" r="1.5" fill="#32B7F0"/>
<circle cx="40.5" cy="196.5" r="1.5" fill="#32B7F0"/>
</g>
</svg>
