<svg width="111" height="110" viewBox="0 0 111 110" fill="none" xmlns="http://www.w3.org/2000/svg">
<g clip-path="url(#clip0)">
<path d="M2.96774 12.8737H40.9756L50.1272 37.1214L3.7635 54.8728C2.30642 55.4306 0.743286 54.3551 0.743286 52.7953V15.0981C0.743286 13.8698 1.73945 12.8737 2.96774 12.8737Z" fill="url(#paint0_linear)"/>
<path d="M78.6884 56.1912H74.0641C71.8355 56.1912 70.3283 58.4632 71.1942 60.5165L75.006 69.5488C75.7016 71.1971 77.3165 72.2684 79.105 72.2684H85.052L78.6884 56.1912Z" fill="#DDF5FF"/>
<path d="M76.9726 68.2946C75.8495 68.2946 74.7957 67.8712 73.9941 67.1498L75.007 69.5488C75.7026 71.1971 77.3175 72.2684 79.106 72.2684H85.0521L83.479 68.2946H76.9726Z" fill="#C1E9F4"/>
<path d="M91.9485 41.8041L109.4 86.6999C109.922 88.0409 110.189 89.4679 110.189 90.9075C110.189 97.322 104.99 102.522 98.5751 102.522H85.4705C83.3963 102.522 81.7155 100.841 81.7155 98.7665V90.2603C81.7155 88.1862 83.3963 86.5053 85.4705 86.5053C88.1383 86.5053 89.9553 83.8016 88.9474 81.3316L72.8176 41.8049L91.9485 41.8041Z" fill="#6D6E77"/>
<path d="M109.4 86.6999L91.9474 41.8041H86.1642L103.617 86.6999C104.138 88.0409 104.406 89.4679 104.406 90.9075C104.406 97.322 99.2053 102.522 92.7916 102.522H98.5749C104.989 102.522 110.189 97.322 110.189 90.9075C110.189 89.4679 109.921 88.0409 109.4 86.6999Z" fill="#52545F"/>
<path d="M39.8341 9.88598L51.4816 40.3737C51.8106 41.2355 52.6373 41.8049 53.5591 41.8049H92.7209C102.369 41.8049 110.189 33.9834 110.189 24.3358C110.189 14.6889 102.369 6.86743 92.7209 6.86743H41.9124C40.3526 6.86743 39.2772 8.42973 39.8341 9.88598Z" fill="#747474"/>
<path d="M39.8341 9.88598L51.4816 40.3737C51.8106 41.2355 52.6373 41.8049 53.5591 41.8049H92.7209C102.369 41.8049 110.189 33.9834 110.189 24.3358C110.189 14.6889 102.369 6.86743 92.7209 6.86743H41.9124C40.3526 6.86743 39.2772 8.42973 39.8341 9.88598Z" fill="#6D6E77"/>
<path d="M92.7208 37.1331H50.2432L51.4807 40.3737C51.8105 41.2355 52.6372 41.8041 53.559 41.8041H92.7208C102.369 41.8041 110.189 33.9834 110.189 24.3358C110.189 23.5433 110.132 22.7651 110.029 22.0002C108.887 30.5424 101.576 37.1331 92.7208 37.1331Z" fill="#52545F"/>
<path d="M39.8341 9.88598L51.4816 40.3737C51.8106 41.2355 52.6373 41.8049 53.5591 41.8049H63.0899L49.7431 6.86743H41.9116C40.3526 6.86743 39.2772 8.42973 39.8341 9.88598Z" fill="#DDF5FF"/>
<path d="M50.2432 37.1331L51.4807 40.3737C51.8105 41.2354 52.6372 41.8041 53.559 41.8041H63.0898L61.3054 37.1331H50.2432Z" fill="#C1E9F4"/>
</g>
<defs>
<linearGradient id="paint0_linear" x1="13.638" y1="-38.9085" x2="63.4677" y2="-25.2856" gradientUnits="userSpaceOnUse">
<stop stop-color="#FF512F"/>
<stop offset="1" stop-color="#DD2476"/>
</linearGradient>
<clipPath id="clip0">
<rect x="0.743286" y="0.0269775" width="109.446" height="109.446" fill="white"/>
</clipPath>
</defs>
</svg>
