<svg width="121" height="121" viewBox="0 0 121 121" fill="none" xmlns="http://www.w3.org/2000/svg">
<path d="M60.3494 57.2869L13.5656 44.4122V102.151C13.5656 103.493 14.4621 104.67 15.756 105.026L53.6498 115.454C58.0344 116.66 62.6638 116.66 67.0484 115.454L104.942 105.026C106.236 104.67 107.133 103.493 107.133 102.151V75.6859L102.227 65.0516L107.133 54.4174V44.412L60.3494 57.2869Z" fill="url(#paint0_linear)"/>
<path d="M60.3495 57.2869V116.359C62.6031 116.359 64.8564 116.057 67.0489 115.454L104.943 105.026C106.237 104.67 107.133 103.493 107.133 102.151V75.6859L103.523 65.0516L107.133 54.4174V44.412L60.3495 57.2869Z" fill="url(#paint1_linear)"/>
<path d="M60.3494 57.2869L13.5656 44.4122V49.736L76.6432 112.814L104.942 105.026C106.236 104.67 107.133 103.493 107.133 102.151V75.6859L102.909 65.0516L107.133 54.4176V44.4122L60.3494 57.2869Z" fill="url(#paint2_linear)"/>
<path d="M28.058 71.3446C34.2735 71.3446 39.3122 66.3059 39.3122 60.0904C39.3122 53.8749 34.2735 48.8362 28.058 48.8362C21.8425 48.8362 16.8038 53.8749 16.8038 60.0904C16.8038 66.3059 21.8425 71.3446 28.058 71.3446Z" fill="url(#paint3_linear)"/>
<path d="M33.6725 69.8425C37.0425 67.8981 39.3123 64.2604 39.3123 60.0904C39.3123 53.8748 34.2737 48.8362 28.058 48.8362C23.888 48.8362 20.2501 51.1062 18.306 54.476L33.6725 69.8425Z" fill="url(#paint4_linear)"/>
<path d="M58.3434 109.263C64.8154 109.263 70.062 104.017 70.062 97.5447C70.062 91.0727 64.8154 85.8262 58.3434 85.8262C51.8714 85.8262 46.6249 91.0727 46.6249 97.5447C46.6249 104.017 51.8714 109.263 58.3434 109.263Z" fill="url(#paint5_linear)"/>
<path d="M107.133 54.4177C105.636 53.7235 103.969 53.3334 102.21 53.3334C95.7384 53.3334 90.4918 58.58 90.4918 65.0519C90.4918 71.5239 95.7384 76.7702 102.21 76.7702C103.969 76.7702 105.636 76.3803 107.133 75.6859V54.4177Z" fill="url(#paint6_linear)"/>
<path d="M38.4983 84.2544C40.9793 84.2544 42.9904 82.2432 42.9904 79.7623C42.9904 77.2813 40.9793 75.2701 38.4983 75.2701C36.0174 75.2701 34.0062 77.2813 34.0062 79.7623C34.0062 82.2432 36.0174 84.2544 38.4983 84.2544Z" fill="url(#paint7_linear)"/>
<path d="M90.4919 102.037C92.9728 102.037 94.984 100.026 94.984 97.5447C94.984 95.0638 92.9728 93.0526 90.4919 93.0526C88.011 93.0526 85.9998 95.0638 85.9998 97.5447C85.9998 100.026 88.011 102.037 90.4919 102.037Z" fill="url(#paint8_linear)"/>
<path d="M60.3495 74.0361C62.8304 74.0361 64.8416 72.0249 64.8416 69.544C64.8416 67.0631 62.8304 65.0519 60.3495 65.0519C57.8685 65.0519 55.8574 67.0631 55.8574 69.544C55.8574 72.0249 57.8685 74.0361 60.3495 74.0361Z" fill="url(#paint9_linear)"/>
<path d="M24.5714 102.606C28.285 102.606 31.2955 99.5951 31.2955 95.8815C31.2955 92.1679 28.285 89.1575 24.5714 89.1575C20.8578 89.1575 17.8474 92.1679 17.8474 95.8815C17.8474 99.5951 20.8578 102.606 24.5714 102.606Z" fill="url(#paint10_linear)"/>
<path d="M80.2768 86.8295C83.9904 86.8295 87.0009 83.819 87.0009 80.1054C87.0009 76.3918 83.9904 73.3813 80.2768 73.3813C76.5632 73.3813 73.5527 76.3918 73.5527 80.1054C73.5527 83.819 76.5632 86.8295 80.2768 86.8295Z" fill="url(#paint11_linear)"/>
<path d="M60.3495 109.089C65.8651 108.137 70.0619 103.332 70.0619 97.5448C70.0619 91.7571 65.8651 86.9528 60.3495 86.0009V109.089Z" fill="url(#paint12_linear)"/>
<path d="M64.8414 69.544C64.8414 67.063 62.8303 65.0519 60.3493 65.0519V74.0361C62.8303 74.0359 64.8414 72.0248 64.8414 69.544Z" fill="url(#paint13_linear)"/>
<path d="M56.4623 22.5433L52.6887 23.5818L45.9201 28.9624L25.0593 31.185L12.2715 34.7043C10.8607 35.0926 9.88318 36.3755 9.88318 37.8387V46.2456C9.88318 47.7088 10.8607 48.9917 12.2715 49.38L56.4623 61.5408C59.0062 62.2408 61.6922 62.2408 64.2364 61.5408L108.427 49.3797C109.838 48.9915 110.815 47.7086 110.815 46.2454V37.8384C110.815 36.3753 109.838 35.0924 108.427 34.7041L91.8891 30.1528L75.8953 30.0977L68.0522 23.5931L64.2364 22.543C61.6922 21.843 59.0065 21.843 56.4623 22.5433Z" fill="url(#paint14_linear)"/>
<path d="M60.3495 49.2494V62.0659C61.657 62.0659 62.9646 61.8908 64.2364 61.5408L79.9112 57.2271L108.427 49.3795C109.838 48.9912 110.816 47.7083 110.816 46.2452V37.8382C110.816 36.9851 110.482 36.1949 109.925 35.6062L60.3495 49.2494Z" fill="url(#paint15_linear)"/>
<path d="M60.3495 49.2495L79.0999 44.0895L82.7551 39.3425L94.9622 39.7244L109.925 35.6067C109.527 35.1854 109.016 34.8663 108.427 34.7044L91.8894 30.1531L77.2201 29.5479L68.0523 23.5933L64.2365 22.5433C61.6925 21.8433 59.0065 21.8433 56.4624 22.5433L52.6888 23.5818L42.4156 28.4848L25.0596 31.1853L12.2715 34.7044C11.6833 34.8663 11.172 35.1854 10.7739 35.6067L25.7368 39.7244L36.2159 39.3592L41.5991 44.0898L60.3495 49.2495Z" fill="#6D6E77"/>
<path d="M94.9621 39.7242L88.8845 43.3921L79.0898 44.0921L28.8096 30.1531L40.7876 26.8568L44.6818 25.7852L94.9621 39.7242Z" fill="url(#paint16_linear)"/>
<path d="M25.7365 39.7242L32.5089 43.639L41.6088 44.0921L91.8892 30.1531L79.911 26.8568L76.0168 25.7852L25.7365 39.7242Z" fill="url(#paint17_linear)"/>
<path d="M79.0997 57.4505L79.9112 57.2273L94.9622 53.0854V39.7241L79.0997 44.0895V57.4505Z" fill="url(#paint18_linear)"/>
<path d="M41.5991 57.4505L40.7878 57.2273L25.7368 53.0854V39.7244L41.5991 44.0897V57.4505Z" fill="url(#paint19_linear)"/>
<path d="M91.1136 54.1444L67.492 30.5228C65.7173 28.5969 63.1745 27.3896 60.3494 27.3896C54.9854 27.3896 50.637 31.7381 50.637 37.1021C50.637 37.8673 51.0334 38.523 51.7114 39.0699L72.036 59.3945L91.1136 54.1444Z" fill="url(#paint20_linear)"/>
<path d="M84.3781 55.9979C83.4762 54.6077 82.4457 53.2804 81.2854 52.1764L63.0676 33.9587C56.6527 27.5437 47.287 25.0681 38.5401 27.4752L37.1061 27.8698C37.5873 29.9109 39.1744 31.8875 40.8125 33.468L67.882 60.5376L84.3781 55.9979Z" fill="url(#paint21_linear)"/>
<path d="M59.7593 36.8952C59.7593 36.8952 53.4718 15.0284 41.4803 21.0569C29.4887 27.0854 45.136 36.8952 45.136 36.8952C45.136 36.8952 53.8782 40.2296 59.7593 36.8952Z" fill="url(#paint22_linear)"/>
<path d="M39.9078 27.0795C38.7159 27.6788 37.9446 28.3354 37.4899 29.0178C39.3038 33.2383 45.1363 36.8952 45.1363 36.8952C45.1363 36.8952 47.2131 37.6853 50.0211 38.1116C50.0274 38.11 50.0335 38.1086 50.0399 38.1069C51.0925 37.8487 51.6737 36.8581 51.338 35.9487C50.034 32.4172 46.1593 23.9367 39.9078 27.0795Z" fill="url(#paint23_linear)"/>
<path d="M60.9394 36.8952C60.9394 36.8952 67.2268 15.0284 79.2184 21.0569C91.2099 27.0854 75.5627 36.8952 75.5627 36.8952C75.5627 36.8952 66.8205 40.2296 60.9394 36.8952Z" fill="url(#paint24_linear)"/>
<path d="M80.7909 27.0795C81.9827 27.6788 82.7541 28.3354 83.2088 29.0178C81.3949 33.2383 75.5624 36.8952 75.5624 36.8952C75.5624 36.8952 73.4856 37.6853 70.6775 38.1116C70.6712 38.11 70.6651 38.1086 70.6588 38.1069C69.6062 37.8487 69.0249 36.8581 69.3606 35.9487C70.6646 32.4172 74.5393 23.9367 80.7909 27.0795Z" fill="url(#paint25_linear)"/>
<path d="M70.0616 37.1021C70.0616 42.466 50.6368 42.466 50.6368 37.1021C50.6368 31.7381 54.9852 27.3896 60.3492 27.3896C65.7131 27.3896 70.0616 31.7381 70.0616 37.1021Z" fill="url(#paint26_linear)"/>
<path d="M101.298 79.8552L42.908 21.4656L42.9045 21.4658C42.0486 21.5153 41.1932 21.5712 40.3378 21.6332H40.3364C38.6502 21.7553 36.9656 21.9017 35.2825 22.0717C35.2097 22.0792 35.1372 22.0867 35.0644 22.0942C34.3212 22.1703 33.5785 22.2513 32.8362 22.3365C32.7296 22.3487 32.6231 22.3607 32.5165 22.3729C30.919 22.5593 29.3237 22.7679 27.7305 22.9975C27.5408 23.025 27.3514 23.0534 27.1619 23.0813C26.5617 23.1698 25.9617 23.2616 25.3619 23.3565C25.1504 23.3898 24.9386 23.4227 24.7271 23.4569C23.9572 23.5813 23.1874 23.7093 22.4186 23.844C22.4186 23.844 25.7527 31.9848 27.2662 34.3463L88.6742 95.5513L101.298 79.8552Z" fill="url(#paint27_linear)"/>
<path d="M84.7013 100.491L18.8115 34.3295C18.3944 33.6788 17.4291 33.6788 17.0119 34.3295C15.1572 37.2234 12.7055 39.6988 9.83033 41.5801C9.19205 41.9977 9.19205 42.9498 9.83033 43.3674L68.0491 101.405C72.7682 106.11 80.5249 105.684 84.7013 100.491Z" fill="url(#paint28_linear)"/>
<path d="M46.3829 26.0162C40.6324 29.7787 35.729 34.7295 32.0193 40.5177C31.185 41.8193 29.2544 41.8193 28.4201 40.5177C24.7107 34.7295 19.8073 29.7787 14.0567 26.0162C12.7802 25.181 12.7802 23.2769 14.0567 22.4417C19.8073 18.6792 24.7107 13.7284 28.4201 7.94024C29.2542 6.63857 31.185 6.63857 32.0193 7.94024C35.729 13.7284 40.6324 18.6792 46.3829 22.4417C47.6593 23.2769 47.6593 25.1812 46.3829 26.0162Z" fill="url(#paint29_linear)"/>
<path d="M25.9933 43.3675C23.1182 45.2487 20.6662 47.7241 18.8115 50.6183C18.3944 51.269 17.4291 51.269 17.0119 50.6183C15.1572 47.7244 12.7055 45.2487 9.83033 43.3677C9.19205 42.9501 9.19205 41.9979 9.83033 41.5803C12.7057 39.6991 15.1572 37.2237 17.0119 34.3297C17.4291 33.679 18.3944 33.679 18.8115 34.3297C20.6662 37.2237 23.1182 39.6993 25.9933 41.5803C26.6314 41.9977 26.6314 42.9498 25.9933 43.3675Z" fill="url(#paint30_linear)"/>
<defs>
<linearGradient id="paint0_linear" x1="36.464" y1="50.0137" x2="126.061" y2="139.611" gradientUnits="userSpaceOnUse">
<stop stop-color="#646465"/>
<stop offset="1" stop-color="#343168"/>
</linearGradient>
<linearGradient id="paint1_linear" x1="69.1727" y1="65.8171" x2="123.729" y2="120.373" gradientUnits="userSpaceOnUse">
<stop stop-color="#464751"/>
<stop offset="1" stop-color="#343168"/>
</linearGradient>
<linearGradient id="paint2_linear" x1="63.0701" y1="92.9203" x2="58.2886" y2="12.3515" gradientUnits="userSpaceOnUse">
<stop stop-color="#343168" stop-opacity="0"/>
<stop offset="1" stop-color="#1B1464"/>
</linearGradient>
<linearGradient id="paint3_linear" x1="22.681" y1="21.183" x2="45.8298" y2="26.5844" gradientUnits="userSpaceOnUse">
<stop stop-color="#FF512F"/>
<stop offset="1" stop-color="#DD2476"/>
</linearGradient>
<linearGradient id="paint4_linear" x1="42.2428" y1="66.6807" x2="6.8595" y2="39.1869" gradientUnits="userSpaceOnUse">
<stop stop-color="#343168" stop-opacity="0"/>
<stop offset="1" stop-color="#1B1464"/>
</linearGradient>
<linearGradient id="paint5_linear" x1="52.7446" y1="57.032" x2="76.8485" y2="62.6563" gradientUnits="userSpaceOnUse">
<stop stop-color="#FF512F"/>
<stop offset="1" stop-color="#DD2476"/>
</linearGradient>
<linearGradient id="paint6_linear" x1="94.837" y1="24.5395" x2="112.401" y2="27.4495" gradientUnits="userSpaceOnUse">
<stop stop-color="#FF512F"/>
<stop offset="1" stop-color="#DD2476"/>
</linearGradient>
<linearGradient id="paint7_linear" x1="36.3521" y1="64.2324" x2="45.5919" y2="66.3883" gradientUnits="userSpaceOnUse">
<stop stop-color="#FF512F"/>
<stop offset="1" stop-color="#DD2476"/>
</linearGradient>
<linearGradient id="paint8_linear" x1="88.3457" y1="82.0149" x2="97.5855" y2="84.1708" gradientUnits="userSpaceOnUse">
<stop stop-color="#FF512F"/>
<stop offset="1" stop-color="#DD2476"/>
</linearGradient>
<linearGradient id="paint9_linear" x1="58.2032" y1="54.0141" x2="67.443" y2="56.1701" gradientUnits="userSpaceOnUse">
<stop stop-color="#FF512F"/>
<stop offset="1" stop-color="#DD2476"/>
</linearGradient>
<linearGradient id="paint10_linear" x1="21.3588" y1="72.6355" x2="35.1896" y2="75.8626" gradientUnits="userSpaceOnUse">
<stop stop-color="#FF512F"/>
<stop offset="1" stop-color="#DD2476"/>
</linearGradient>
<linearGradient id="paint11_linear" x1="77.0642" y1="56.8593" x2="90.895" y2="60.0865" gradientUnits="userSpaceOnUse">
<stop stop-color="#FF512F"/>
<stop offset="1" stop-color="#DD2476"/>
</linearGradient>
<linearGradient id="paint12_linear" x1="65.2055" y1="89.8397" x2="65.2055" y2="135.676" gradientUnits="userSpaceOnUse">
<stop stop-color="#343168" stop-opacity="0"/>
<stop offset="1" stop-color="#1B1464"/>
</linearGradient>
<linearGradient id="paint13_linear" x1="62.5956" y1="66.659" x2="62.5956" y2="92.1139" gradientUnits="userSpaceOnUse">
<stop stop-color="#343168" stop-opacity="0"/>
<stop offset="1" stop-color="#1B1464"/>
</linearGradient>
<linearGradient id="paint14_linear" x1="42.8068" y1="24.4997" x2="108.611" y2="90.3038" gradientUnits="userSpaceOnUse">
<stop stop-color="#5E5E66"/>
<stop offset="1" stop-color="#343168"/>
</linearGradient>
<linearGradient id="paint15_linear" x1="77.5095" y1="41.2084" x2="106.178" y2="69.8771" gradientUnits="userSpaceOnUse">
<stop stop-color="#3D3C5B"/>
<stop offset="1" stop-color="#343168"/>
</linearGradient>
<linearGradient id="paint16_linear" x1="46.0828" y1="3.29377" x2="88.0129" y2="38.6474" gradientUnits="userSpaceOnUse">
<stop stop-color="#FF512F"/>
<stop offset="1" stop-color="#DD2476"/>
</linearGradient>
<linearGradient id="paint17_linear" x1="43.0097" y1="3.29377" x2="84.9399" y2="38.6475" gradientUnits="userSpaceOnUse">
<stop stop-color="#FF512F"/>
<stop offset="1" stop-color="#DD2476"/>
</linearGradient>
<linearGradient id="paint18_linear" x1="83.2415" y1="17.946" x2="99.7249" y2="21.3877" gradientUnits="userSpaceOnUse">
<stop stop-color="#FF512F"/>
<stop offset="1" stop-color="#DD2476"/>
</linearGradient>
<linearGradient id="paint19_linear" x1="29.8786" y1="17.9465" x2="46.3617" y2="21.3882" gradientUnits="userSpaceOnUse">
<stop stop-color="#FF512F"/>
<stop offset="1" stop-color="#DD2476"/>
</linearGradient>
<linearGradient id="paint20_linear" x1="72.8318" y1="49.122" x2="47.0235" y2="6.97492" gradientUnits="userSpaceOnUse">
<stop stop-color="#343168" stop-opacity="0"/>
<stop offset="1" stop-color="#1B1464"/>
</linearGradient>
<linearGradient id="paint21_linear" x1="60.8882" y1="42.4269" x2="45.8379" y2="11.8282" gradientUnits="userSpaceOnUse">
<stop stop-color="#343168" stop-opacity="0"/>
<stop offset="1" stop-color="#1B1464"/>
</linearGradient>
<linearGradient id="paint22_linear" x1="42.9112" y1="-2.56514" x2="65.7252" y2="4.04185" gradientUnits="userSpaceOnUse">
<stop stop-color="#FF512F"/>
<stop offset="1" stop-color="#DD2476"/>
</linearGradient>
<linearGradient id="paint23_linear" x1="44.5719" y1="32.2747" x2="54.1956" y2="32.1514" gradientUnits="userSpaceOnUse">
<stop stop-color="#262C2D" stop-opacity="0"/>
<stop offset="1" stop-color="#3B4653"/>
</linearGradient>
<linearGradient id="paint24_linear" x1="66.8932" y1="-2.56514" x2="89.7072" y2="4.04184" gradientUnits="userSpaceOnUse">
<stop stop-color="#FF512F"/>
<stop offset="1" stop-color="#DD2476"/>
</linearGradient>
<linearGradient id="paint25_linear" x1="76.1267" y1="32.2747" x2="66.503" y2="32.1514" gradientUnits="userSpaceOnUse">
<stop stop-color="#404444" stop-opacity="0"/>
<stop offset="1" stop-color="#262A2E"/>
</linearGradient>
<linearGradient id="paint26_linear" x1="55.7088" y1="10.5148" x2="74.7054" y2="16.7833" gradientUnits="userSpaceOnUse">
<stop stop-color="#FF512F"/>
<stop offset="1" stop-color="#DD2476"/>
</linearGradient>
<linearGradient id="paint27_linear" x1="45.8442" y1="37.3138" x2="22.1984" y2="11.9377" gradientUnits="userSpaceOnUse">
<stop stop-color="#A34A9E" stop-opacity="0"/>
<stop offset="1" stop-color="#343168"/>
</linearGradient>
<linearGradient id="paint28_linear" x1="36.5032" y1="60.9845" x2="4.00064" y2="28.7761" gradientUnits="userSpaceOnUse">
<stop stop-color="#A34A9E" stop-opacity="0"/>
<stop offset="1" stop-color="#343168"/>
</linearGradient>
<linearGradient id="paint29_linear" x1="22.04" y1="-35.4585" x2="57.2854" y2="-27.3034" gradientUnits="userSpaceOnUse">
<stop stop-color="#FF512F"/>
<stop offset="1" stop-color="#DD2476"/>
</linearGradient>
<linearGradient id="paint30_linear" x1="13.8219" y1="12.6308" x2="31.4444" y2="16.7083" gradientUnits="userSpaceOnUse">
<stop stop-color="#FF512F"/>
<stop offset="1" stop-color="#DD2476"/>
</linearGradient>
</defs>
</svg>
