<svg width="93" height="107" viewBox="0 0 93 107" fill="none" xmlns="http://www.w3.org/2000/svg">
<path d="M32.6971 54.3489C36.0245 51.0215 38.1319 46.3631 38.1319 41.1502C38.1319 39.2646 37.5773 37.1573 36.69 34.939C35.6918 32.6098 34.3608 30.2806 32.808 27.8406C32.808 27.7296 32.6971 27.7296 32.6971 27.6187C29.4806 22.7385 25.2659 17.9693 21.7167 13.8655L19.4984 11.3145L17.2801 13.8655C10.4035 21.8512 0.86496 32.8317 0.86496 41.1502C0.86496 46.2522 2.97231 50.9105 6.29972 54.3489C9.62712 57.6763 14.2855 59.7836 19.4984 59.7836C24.6004 59.7836 29.2588 57.6763 32.6971 54.3489Z" fill="url(#paint0_linear)"/>
<path d="M82.4973 1.33211L81.9427 0.666626L81.3881 1.33211C77.2843 6.10138 71.6277 12.6453 71.6277 17.3036C71.6277 20.1874 72.7369 22.7384 74.6224 24.6239C76.5079 26.5095 79.0589 27.6186 81.9427 27.6186C84.8264 27.6186 87.3774 26.5095 89.263 24.6239C91.1485 22.7384 92.2576 20.1874 92.2576 17.3036C92.2576 12.6453 86.6011 6.10138 82.4973 1.33211Z" fill="url(#paint1_linear)"/>
<path d="M46.8939 16.749C45.2302 18.7455 43.3447 20.8528 41.4591 23.182L38.5754 26.5094C39.9064 28.6168 41.0155 30.7241 41.9028 32.8315C43.1229 35.7152 43.7883 38.4881 43.7883 41.15C43.7883 47.8048 41.1264 53.905 36.6899 58.3416C32.2533 62.7781 26.264 65.44 19.4983 65.44C17.9455 65.44 16.5036 65.3291 15.0617 64.9964C14.5072 64.8855 14.0635 64.7745 13.509 64.6636C13.2871 65.5509 13.0653 66.4382 12.8435 67.3255C12.5107 68.9892 12.2889 70.542 12.2889 72.2057C12.2889 81.7443 16.1709 90.3955 22.382 96.7176C28.7041 103.04 37.3554 106.811 46.8939 106.811C56.4325 106.811 65.0837 102.929 71.4058 96.7176C77.7278 90.5065 81.4989 81.7443 81.4989 72.2057C81.4989 57.0106 64.5291 37.4898 52.3287 23.2929C50.4431 20.8528 48.6685 18.7455 46.8939 16.749Z" fill="url(#paint2_linear)"/>
<defs>
<linearGradient id="paint0_linear" x1="10.5958" y1="-48.2334" x2="49.7494" y2="-41.209" gradientUnits="userSpaceOnUse">
<stop stop-color="#FF512F"/>
<stop offset="1" stop-color="#DD2476"/>
</linearGradient>
<linearGradient id="paint1_linear" x1="77.0144" y1="-32.4458" x2="98.6949" y2="-28.5736" gradientUnits="userSpaceOnUse">
<stop stop-color="#FF512F"/>
<stop offset="1" stop-color="#DD2476"/>
</linearGradient>
<linearGradient id="paint2_linear" x1="30.3604" y1="-93.8982" x2="103.077" y2="-80.8594" gradientUnits="userSpaceOnUse">
<stop stop-color="#FF512F"/>
<stop offset="1" stop-color="#DD2476"/>
</linearGradient>
</defs>
</svg>
