<svg width="19" height="19" viewBox="0 0 19 19" fill="none" xmlns="http://www.w3.org/2000/svg">
<path d="M17.6453 2.92441L15.2532 0.53457C15.0845 0.365088 14.8839 0.230615 14.6631 0.138877C14.4422 0.0471387 14.2054 -5.73194e-05 13.9662 5.22431e-08C13.4788 5.22431e-08 13.0206 0.190918 12.677 0.53457L10.1029 3.10859C9.93345 3.27733 9.79898 3.4779 9.70724 3.69876C9.6155 3.91963 9.5683 4.15645 9.56836 4.39561C9.56836 4.88301 9.75928 5.34121 10.1029 5.68486L11.9852 7.56709C11.5446 8.53821 10.932 9.42166 10.1771 10.1748C9.42398 10.9316 8.54061 11.5464 7.56934 11.9896L5.68711 10.1074C5.51837 9.93794 5.31781 9.80347 5.09694 9.71173C4.87607 9.61999 4.63926 9.57279 4.4001 9.57285C3.9127 9.57285 3.45449 9.76377 3.11084 10.1074L0.534572 12.6792C0.364881 12.8483 0.230293 13.0492 0.13855 13.2704C0.0468076 13.4917 -0.000278334 13.7289 1.23768e-06 13.9685C1.23768e-06 14.4559 0.190919 14.9141 0.534572 15.2577L2.92217 17.6453C3.47022 18.1956 4.22715 18.5078 5.0043 18.5078C5.16826 18.5078 5.32549 18.4943 5.48047 18.4674C8.5082 17.9688 11.5112 16.3583 13.9348 13.937C16.3561 11.518 17.9643 8.51719 18.4696 5.48047C18.6224 4.55283 18.3146 3.59824 17.6453 2.92441Z" fill="#F2F2F2"/>
</svg>
