<svg width="29" height="29" viewBox="0 0 29 29" fill="none" xmlns="http://www.w3.org/2000/svg">
<path d="M26.9648 9.15527e-05H1.83925C0.823089 9.15527e-05 0 0.823181 0 1.83731V26.9629C0 27.977 0.823089 28.8001 1.83925 28.8001H26.9628C27.9769 28.8001 28.8 27.977 28.8 26.9629V1.83731C28.802 0.821149 27.9789 9.15527e-05 26.9648 9.15527e-05ZM23.8899 17.5492C24.4163 18.0857 25.5585 18.986 25.3512 19.9026C25.1601 20.744 23.9041 20.4371 22.6847 20.4859C21.2926 20.5448 20.4675 20.5753 19.6302 19.9026C19.2359 19.5835 19.0042 19.2055 18.6262 18.7828C18.2827 18.4007 17.8499 17.7158 17.2605 17.7422C16.2017 17.7951 16.5329 19.2705 16.1569 20.2765C10.2713 21.2033 7.90776 17.5675 5.8226 14.0394C4.81253 12.3302 3.35333 8.65981 3.35333 8.65981L7.51552 8.64558C7.51552 8.64558 8.85075 11.0742 9.20438 11.7002C9.50516 12.2326 9.83643 12.6553 10.1779 13.1309C10.4644 13.5252 10.9176 14.2975 11.4135 14.2345C12.2203 14.1308 12.3667 11.001 11.8667 9.95236C11.6675 9.52761 11.19 9.37925 10.6961 9.23495C10.8627 8.18221 15.3643 7.96272 16.0919 8.77971C17.1487 9.96659 15.3603 13.2711 16.8073 14.2345C18.8396 13.1695 20.5752 8.71061 20.5752 8.71061L25.4487 8.7411C25.4487 8.7411 24.6866 11.1514 23.8879 12.2204C23.4225 12.8464 21.8779 14.2406 21.9389 15.275C21.9877 16.094 23.2436 16.8907 23.8899 17.5492Z" fill="#F2F2F2"/>
</svg>
