<svg width="233" height="231" viewBox="0 0 233 231" fill="none" xmlns="http://www.w3.org/2000/svg">
<mask id="mask0" mask-type="alpha" maskUnits="userSpaceOnUse" x="3" y="37" width="169" height="168">
<circle cx="169.758" cy="203.727" r="1.27273" transform="rotate(180 169.758 203.727)" fill="white" fill-opacity="0.3"/>
<circle cx="81.5151" cy="203.727" r="1.27273" transform="rotate(180 81.5151 203.727)" fill="white" fill-opacity="0.3"/>
<circle cx="81.5151" cy="115.485" r="1.27273" transform="rotate(180 81.5151 115.485)" fill="white" fill-opacity="0.3"/>
<circle cx="170.606" cy="115.485" r="1.27273" transform="rotate(180 170.606 115.485)" fill="white" fill-opacity="0.3"/>
<circle cx="125.636" cy="203.727" r="1.27273" transform="rotate(180 125.636 203.727)" fill="white" fill-opacity="0.3"/>
<circle cx="37.3939" cy="203.727" r="1.27273" transform="rotate(180 37.3939 203.727)" fill="white" fill-opacity="0.3"/>
<circle cx="37.3939" cy="115.485" r="1.27273" transform="rotate(180 37.3939 115.485)" fill="white" fill-opacity="0.3"/>
<circle cx="126.485" cy="115.485" r="1.27273" transform="rotate(180 126.485 115.485)" fill="white" fill-opacity="0.3"/>
<circle cx="125.636" cy="159.606" r="1.27273" transform="rotate(180 125.636 159.606)" fill="white" fill-opacity="0.3"/>
<circle cx="37.3939" cy="159.606" r="1.27273" transform="rotate(180 37.3939 159.606)" fill="white" fill-opacity="0.3"/>
<circle cx="37.3939" cy="71.3637" r="1.27273" transform="rotate(180 37.3939 71.3637)" fill="white" fill-opacity="0.3"/>
<circle cx="126.485" cy="71.3637" r="1.27273" transform="rotate(180 126.485 71.3637)" fill="white" fill-opacity="0.3"/>
<circle cx="169.758" cy="159.606" r="1.27273" transform="rotate(180 169.758 159.606)" fill="white" fill-opacity="0.3"/>
<circle cx="81.5151" cy="159.606" r="1.27273" transform="rotate(180 81.5151 159.606)" fill="white" fill-opacity="0.3"/>
<circle cx="81.5151" cy="71.3637" r="1.27273" transform="rotate(180 81.5151 71.3637)" fill="white" fill-opacity="0.3"/>
<circle cx="170.606" cy="71.3637" r="1.27273" transform="rotate(180 170.606 71.3637)" fill="white" fill-opacity="0.3"/>
<circle cx="169.758" cy="181.667" r="1.27273" transform="rotate(180 169.758 181.667)" fill="white" fill-opacity="0.3"/>
<circle cx="81.5151" cy="181.667" r="1.27273" transform="rotate(180 81.5151 181.667)" fill="white" fill-opacity="0.3"/>
<circle cx="81.5151" cy="93.4243" r="1.27273" transform="rotate(180 81.5151 93.4243)" fill="white" fill-opacity="0.3"/>
<circle cx="170.606" cy="93.4243" r="1.27273" transform="rotate(180 170.606 93.4243)" fill="white" fill-opacity="0.3"/>
<circle cx="125.636" cy="181.667" r="1.27273" transform="rotate(180 125.636 181.667)" fill="white" fill-opacity="0.3"/>
<circle cx="37.3939" cy="181.667" r="1.27273" transform="rotate(180 37.3939 181.667)" fill="white" fill-opacity="0.3"/>
<circle cx="37.394" cy="93.4243" r="1.27273" transform="rotate(180 37.394 93.4243)" fill="white" fill-opacity="0.3"/>
<circle cx="126.485" cy="93.4243" r="1.27273" transform="rotate(180 126.485 93.4243)" fill="white" fill-opacity="0.3"/>
<circle cx="125.636" cy="137.545" r="1.27273" transform="rotate(180 125.636 137.545)" fill="white" fill-opacity="0.3"/>
<circle cx="37.3939" cy="137.545" r="1.27273" transform="rotate(180 37.3939 137.545)" fill="white" fill-opacity="0.3"/>
<circle cx="37.3939" cy="49.303" r="1.27273" transform="rotate(180 37.3939 49.303)" fill="white" fill-opacity="0.3"/>
<circle cx="126.485" cy="49.303" r="1.27273" transform="rotate(180 126.485 49.303)" fill="white" fill-opacity="0.3"/>
<circle cx="169.758" cy="137.545" r="1.27273" transform="rotate(180 169.758 137.545)" fill="white" fill-opacity="0.3"/>
<circle cx="81.5151" cy="137.545" r="1.27273" transform="rotate(180 81.5151 137.545)" fill="white" fill-opacity="0.3"/>
<circle cx="81.5151" cy="49.303" r="1.27273" transform="rotate(180 81.5151 49.303)" fill="white" fill-opacity="0.3"/>
<circle cx="170.606" cy="49.303" r="1.27273" transform="rotate(180 170.606 49.303)" fill="white" fill-opacity="0.3"/>
<circle cx="147.697" cy="203.727" r="1.27273" transform="rotate(180 147.697 203.727)" fill="white" fill-opacity="0.3"/>
<circle cx="59.4545" cy="203.727" r="1.27273" transform="rotate(180 59.4545 203.727)" fill="white" fill-opacity="0.3"/>
<circle cx="59.4545" cy="115.485" r="1.27273" transform="rotate(180 59.4545 115.485)" fill="white" fill-opacity="0.3"/>
<circle cx="148.545" cy="115.485" r="1.27273" transform="rotate(180 148.545 115.485)" fill="white" fill-opacity="0.3"/>
<circle cx="103.576" cy="203.727" r="1.27273" transform="rotate(180 103.576 203.727)" fill="white" fill-opacity="0.3"/>
<circle cx="15.3334" cy="203.727" r="1.27273" transform="rotate(180 15.3334 203.727)" fill="white" fill-opacity="0.3"/>
<circle cx="15.3333" cy="115.485" r="1.27273" transform="rotate(180 15.3333 115.485)" fill="white" fill-opacity="0.3"/>
<circle cx="104.424" cy="115.485" r="1.27273" transform="rotate(180 104.424 115.485)" fill="white" fill-opacity="0.3"/>
<circle cx="103.576" cy="159.606" r="1.27273" transform="rotate(180 103.576 159.606)" fill="white" fill-opacity="0.3"/>
<circle cx="15.3333" cy="159.606" r="1.27273" transform="rotate(180 15.3333 159.606)" fill="white" fill-opacity="0.3"/>
<circle cx="15.3334" cy="71.3637" r="1.27273" transform="rotate(180 15.3334 71.3637)" fill="white" fill-opacity="0.3"/>
<circle cx="104.424" cy="71.3637" r="1.27273" transform="rotate(180 104.424 71.3637)" fill="white" fill-opacity="0.3"/>
<circle cx="147.697" cy="159.606" r="1.27273" transform="rotate(180 147.697 159.606)" fill="white" fill-opacity="0.3"/>
<circle cx="59.4545" cy="159.606" r="1.27273" transform="rotate(180 59.4545 159.606)" fill="white" fill-opacity="0.3"/>
<circle cx="59.4545" cy="71.3637" r="1.27273" transform="rotate(180 59.4545 71.3637)" fill="white" fill-opacity="0.3"/>
<circle cx="148.545" cy="71.3637" r="1.27273" transform="rotate(180 148.545 71.3637)" fill="white" fill-opacity="0.3"/>
<circle cx="147.697" cy="181.667" r="1.27273" transform="rotate(180 147.697 181.667)" fill="white" fill-opacity="0.3"/>
<circle cx="59.4545" cy="181.667" r="1.27273" transform="rotate(180 59.4545 181.667)" fill="white" fill-opacity="0.3"/>
<circle cx="59.4545" cy="93.4243" r="1.27273" transform="rotate(180 59.4545 93.4243)" fill="white" fill-opacity="0.3"/>
<circle cx="148.545" cy="93.4243" r="1.27273" transform="rotate(180 148.545 93.4243)" fill="white" fill-opacity="0.3"/>
<circle cx="103.576" cy="181.667" r="1.27273" transform="rotate(180 103.576 181.667)" fill="white" fill-opacity="0.3"/>
<circle cx="15.3333" cy="181.667" r="1.27273" transform="rotate(180 15.3333 181.667)" fill="white" fill-opacity="0.3"/>
<circle cx="15.3334" cy="93.4243" r="1.27273" transform="rotate(180 15.3334 93.4243)" fill="white" fill-opacity="0.3"/>
<circle cx="104.424" cy="93.4243" r="1.27273" transform="rotate(180 104.424 93.4243)" fill="white" fill-opacity="0.3"/>
<circle cx="103.576" cy="137.545" r="1.27273" transform="rotate(180 103.576 137.545)" fill="white" fill-opacity="0.3"/>
<circle cx="15.3333" cy="137.545" r="1.27273" transform="rotate(180 15.3333 137.545)" fill="white" fill-opacity="0.3"/>
<circle cx="15.3334" cy="49.303" r="1.27273" transform="rotate(180 15.3334 49.303)" fill="white" fill-opacity="0.3"/>
<circle cx="104.424" cy="49.303" r="1.27273" transform="rotate(180 104.424 49.303)" fill="white" fill-opacity="0.3"/>
<circle cx="147.697" cy="137.545" r="1.27273" transform="rotate(180 147.697 137.545)" fill="white" fill-opacity="0.3"/>
<circle cx="59.4545" cy="137.545" r="1.27273" transform="rotate(180 59.4545 137.545)" fill="white" fill-opacity="0.3"/>
<circle cx="59.4545" cy="49.303" r="1.27273" transform="rotate(180 59.4545 49.303)" fill="white" fill-opacity="0.3"/>
<circle cx="148.545" cy="49.303" r="1.27273" transform="rotate(180 148.545 49.303)" fill="white" fill-opacity="0.3"/>
<circle cx="169.758" cy="192.697" r="1.27273" transform="rotate(180 169.758 192.697)" fill="white" fill-opacity="0.3"/>
<circle cx="81.5151" cy="192.697" r="1.27273" transform="rotate(180 81.5151 192.697)" fill="white" fill-opacity="0.3"/>
<circle cx="81.5151" cy="104.455" r="1.27273" transform="rotate(180 81.5151 104.455)" fill="white" fill-opacity="0.3"/>
<circle cx="170.606" cy="104.455" r="1.27273" transform="rotate(180 170.606 104.455)" fill="white" fill-opacity="0.3"/>
<circle cx="125.636" cy="192.697" r="1.27273" transform="rotate(180 125.636 192.697)" fill="white" fill-opacity="0.3"/>
<circle cx="37.3939" cy="192.697" r="1.27273" transform="rotate(180 37.3939 192.697)" fill="white" fill-opacity="0.3"/>
<circle cx="37.394" cy="104.455" r="1.27273" transform="rotate(180 37.394 104.455)" fill="white" fill-opacity="0.3"/>
<circle cx="126.485" cy="104.455" r="1.27273" transform="rotate(180 126.485 104.455)" fill="white" fill-opacity="0.3"/>
<circle cx="125.636" cy="148.576" r="1.27273" transform="rotate(180 125.636 148.576)" fill="white" fill-opacity="0.3"/>
<circle cx="37.3939" cy="148.576" r="1.27273" transform="rotate(180 37.3939 148.576)" fill="white" fill-opacity="0.3"/>
<circle cx="37.3939" cy="60.3332" r="1.27273" transform="rotate(180 37.3939 60.3332)" fill="white" fill-opacity="0.3"/>
<circle cx="126.485" cy="60.3332" r="1.27273" transform="rotate(180 126.485 60.3332)" fill="white" fill-opacity="0.3"/>
<circle cx="169.758" cy="148.576" r="1.27273" transform="rotate(180 169.758 148.576)" fill="white" fill-opacity="0.3"/>
<circle cx="81.5151" cy="148.576" r="1.27273" transform="rotate(180 81.5151 148.576)" fill="white" fill-opacity="0.3"/>
<circle cx="81.5151" cy="60.3332" r="1.27273" transform="rotate(180 81.5151 60.3332)" fill="white" fill-opacity="0.3"/>
<circle cx="170.606" cy="60.3332" r="1.27273" transform="rotate(180 170.606 60.3332)" fill="white" fill-opacity="0.3"/>
<circle cx="169.758" cy="170.636" r="1.27273" transform="rotate(180 169.758 170.636)" fill="white" fill-opacity="0.3"/>
<circle cx="81.5151" cy="170.636" r="1.27273" transform="rotate(180 81.5151 170.636)" fill="white" fill-opacity="0.3"/>
<circle cx="81.5151" cy="82.394" r="1.27273" transform="rotate(180 81.5151 82.394)" fill="white" fill-opacity="0.3"/>
<circle cx="170.606" cy="82.394" r="1.27273" transform="rotate(180 170.606 82.394)" fill="white" fill-opacity="0.3"/>
<circle cx="125.636" cy="170.636" r="1.27273" transform="rotate(180 125.636 170.636)" fill="white" fill-opacity="0.3"/>
<circle cx="37.3939" cy="170.636" r="1.27273" transform="rotate(180 37.3939 170.636)" fill="white" fill-opacity="0.3"/>
<circle cx="37.3939" cy="82.394" r="1.27273" transform="rotate(180 37.3939 82.394)" fill="white" fill-opacity="0.3"/>
<circle cx="126.485" cy="82.394" r="1.27273" transform="rotate(180 126.485 82.394)" fill="white" fill-opacity="0.3"/>
<circle cx="125.636" cy="126.515" r="1.27273" transform="rotate(180 125.636 126.515)" fill="white" fill-opacity="0.3"/>
<circle cx="37.3939" cy="126.515" r="1.27273" transform="rotate(180 37.3939 126.515)" fill="white" fill-opacity="0.3"/>
<circle cx="37.3939" cy="38.2727" r="1.27273" transform="rotate(180 37.3939 38.2727)" fill="white" fill-opacity="0.3"/>
<circle cx="126.485" cy="38.2727" r="1.27273" transform="rotate(180 126.485 38.2727)" fill="white" fill-opacity="0.3"/>
<circle cx="169.758" cy="126.515" r="1.27273" transform="rotate(180 169.758 126.515)" fill="white" fill-opacity="0.3"/>
<circle cx="81.5151" cy="126.515" r="1.27273" transform="rotate(180 81.5151 126.515)" fill="white" fill-opacity="0.3"/>
<circle cx="81.5151" cy="38.2727" r="1.27273" transform="rotate(180 81.5151 38.2727)" fill="white" fill-opacity="0.3"/>
<circle cx="170.606" cy="38.2727" r="1.27273" transform="rotate(180 170.606 38.2727)" fill="white" fill-opacity="0.3"/>
<circle cx="147.697" cy="192.697" r="1.27273" transform="rotate(180 147.697 192.697)" fill="white" fill-opacity="0.3"/>
<circle cx="59.4545" cy="192.697" r="1.27273" transform="rotate(180 59.4545 192.697)" fill="white" fill-opacity="0.3"/>
<circle cx="59.4545" cy="104.455" r="1.27273" transform="rotate(180 59.4545 104.455)" fill="white" fill-opacity="0.3"/>
<circle cx="148.545" cy="104.455" r="1.27273" transform="rotate(180 148.545 104.455)" fill="white" fill-opacity="0.3"/>
<circle cx="103.576" cy="192.697" r="1.27273" transform="rotate(180 103.576 192.697)" fill="white" fill-opacity="0.3"/>
<circle cx="15.3333" cy="192.697" r="1.27273" transform="rotate(180 15.3333 192.697)" fill="white" fill-opacity="0.3"/>
<circle cx="15.3334" cy="104.455" r="1.27273" transform="rotate(180 15.3334 104.455)" fill="white" fill-opacity="0.3"/>
<circle cx="104.424" cy="104.455" r="1.27273" transform="rotate(180 104.424 104.455)" fill="white" fill-opacity="0.3"/>
<circle cx="103.576" cy="148.576" r="1.27273" transform="rotate(180 103.576 148.576)" fill="white" fill-opacity="0.3"/>
<circle cx="15.3333" cy="148.576" r="1.27273" transform="rotate(180 15.3333 148.576)" fill="white" fill-opacity="0.3"/>
<circle cx="15.3334" cy="60.3332" r="1.27273" transform="rotate(180 15.3334 60.3332)" fill="white" fill-opacity="0.3"/>
<circle cx="104.424" cy="60.3332" r="1.27273" transform="rotate(180 104.424 60.3332)" fill="white" fill-opacity="0.3"/>
<circle cx="147.697" cy="148.576" r="1.27273" transform="rotate(180 147.697 148.576)" fill="white" fill-opacity="0.3"/>
<circle cx="59.4545" cy="148.576" r="1.27273" transform="rotate(180 59.4545 148.576)" fill="white" fill-opacity="0.3"/>
<circle cx="59.4545" cy="60.3332" r="1.27273" transform="rotate(180 59.4545 60.3332)" fill="white" fill-opacity="0.3"/>
<circle cx="148.545" cy="60.3332" r="1.27273" transform="rotate(180 148.545 60.3332)" fill="white" fill-opacity="0.3"/>
<circle cx="147.697" cy="170.636" r="1.27273" transform="rotate(180 147.697 170.636)" fill="white" fill-opacity="0.3"/>
<circle cx="59.4545" cy="170.636" r="1.27273" transform="rotate(180 59.4545 170.636)" fill="white" fill-opacity="0.3"/>
<circle cx="59.4545" cy="82.394" r="1.27273" transform="rotate(180 59.4545 82.394)" fill="white" fill-opacity="0.3"/>
<circle cx="148.545" cy="82.394" r="1.27273" transform="rotate(180 148.545 82.394)" fill="white" fill-opacity="0.3"/>
<circle cx="103.576" cy="170.636" r="1.27273" transform="rotate(180 103.576 170.636)" fill="white" fill-opacity="0.3"/>
<circle cx="15.3333" cy="170.636" r="1.27273" transform="rotate(180 15.3333 170.636)" fill="white" fill-opacity="0.3"/>
<circle cx="15.3334" cy="82.394" r="1.27273" transform="rotate(180 15.3334 82.394)" fill="white" fill-opacity="0.3"/>
<circle cx="104.424" cy="82.394" r="1.27273" transform="rotate(180 104.424 82.394)" fill="white" fill-opacity="0.3"/>
<circle cx="103.576" cy="126.515" r="1.27273" transform="rotate(180 103.576 126.515)" fill="white" fill-opacity="0.3"/>
<circle cx="15.3333" cy="126.515" r="1.27273" transform="rotate(180 15.3333 126.515)" fill="white" fill-opacity="0.3"/>
<circle cx="15.3333" cy="38.2727" r="1.27273" transform="rotate(180 15.3333 38.2727)" fill="white" fill-opacity="0.3"/>
<circle cx="104.424" cy="38.2727" r="1.27273" transform="rotate(180 104.424 38.2727)" fill="white" fill-opacity="0.3"/>
<circle cx="147.697" cy="126.515" r="1.27273" transform="rotate(180 147.697 126.515)" fill="white" fill-opacity="0.3"/>
<circle cx="59.4545" cy="126.515" r="1.27273" transform="rotate(180 59.4545 126.515)" fill="white" fill-opacity="0.3"/>
<circle cx="59.4545" cy="38.2727" r="1.27273" transform="rotate(180 59.4545 38.2727)" fill="white" fill-opacity="0.3"/>
<circle cx="148.545" cy="38.2727" r="1.27273" transform="rotate(180 148.545 38.2727)" fill="white" fill-opacity="0.3"/>
<circle cx="158.727" cy="203.727" r="1.27273" transform="rotate(180 158.727 203.727)" fill="white" fill-opacity="0.3"/>
<circle cx="70.4848" cy="203.727" r="1.27273" transform="rotate(180 70.4848 203.727)" fill="white" fill-opacity="0.3"/>
<circle cx="70.4848" cy="115.485" r="1.27273" transform="rotate(180 70.4848 115.485)" fill="white" fill-opacity="0.3"/>
<circle cx="159.576" cy="115.485" r="1.27273" transform="rotate(180 159.576 115.485)" fill="white" fill-opacity="0.3"/>
<circle cx="114.606" cy="203.727" r="1.27273" transform="rotate(180 114.606 203.727)" fill="white" fill-opacity="0.3"/>
<circle cx="26.3636" cy="203.727" r="1.27273" transform="rotate(180 26.3636 203.727)" fill="white" fill-opacity="0.3"/>
<circle cx="26.3636" cy="115.485" r="1.27273" transform="rotate(180 26.3636 115.485)" fill="white" fill-opacity="0.3"/>
<circle cx="115.455" cy="115.485" r="1.27273" transform="rotate(180 115.455 115.485)" fill="white" fill-opacity="0.3"/>
<circle cx="114.606" cy="159.606" r="1.27273" transform="rotate(180 114.606 159.606)" fill="white" fill-opacity="0.3"/>
<circle cx="26.3636" cy="159.606" r="1.27273" transform="rotate(180 26.3636 159.606)" fill="white" fill-opacity="0.3"/>
<circle cx="26.3636" cy="71.3637" r="1.27273" transform="rotate(180 26.3636 71.3637)" fill="white" fill-opacity="0.3"/>
<circle cx="115.455" cy="71.3637" r="1.27273" transform="rotate(180 115.455 71.3637)" fill="white" fill-opacity="0.3"/>
<circle cx="158.727" cy="159.606" r="1.27273" transform="rotate(180 158.727 159.606)" fill="white" fill-opacity="0.3"/>
<circle cx="70.4848" cy="159.606" r="1.27273" transform="rotate(180 70.4848 159.606)" fill="white" fill-opacity="0.3"/>
<circle cx="70.4848" cy="71.3637" r="1.27273" transform="rotate(180 70.4848 71.3637)" fill="white" fill-opacity="0.3"/>
<circle cx="159.576" cy="71.3637" r="1.27273" transform="rotate(180 159.576 71.3637)" fill="white" fill-opacity="0.3"/>
<circle cx="158.727" cy="181.667" r="1.27273" transform="rotate(180 158.727 181.667)" fill="white" fill-opacity="0.3"/>
<circle cx="70.4848" cy="181.667" r="1.27273" transform="rotate(180 70.4848 181.667)" fill="white" fill-opacity="0.3"/>
<circle cx="70.4848" cy="93.4243" r="1.27273" transform="rotate(180 70.4848 93.4243)" fill="white" fill-opacity="0.3"/>
<circle cx="159.576" cy="93.4243" r="1.27273" transform="rotate(180 159.576 93.4243)" fill="white" fill-opacity="0.3"/>
<circle cx="114.606" cy="181.667" r="1.27273" transform="rotate(180 114.606 181.667)" fill="white" fill-opacity="0.3"/>
<circle cx="26.3636" cy="181.667" r="1.27273" transform="rotate(180 26.3636 181.667)" fill="white" fill-opacity="0.3"/>
<circle cx="26.3636" cy="93.4243" r="1.27273" transform="rotate(180 26.3636 93.4243)" fill="white" fill-opacity="0.3"/>
<circle cx="115.455" cy="93.4243" r="1.27273" transform="rotate(180 115.455 93.4243)" fill="white" fill-opacity="0.3"/>
<circle cx="114.606" cy="137.545" r="1.27273" transform="rotate(180 114.606 137.545)" fill="white" fill-opacity="0.3"/>
<circle cx="26.3636" cy="137.545" r="1.27273" transform="rotate(180 26.3636 137.545)" fill="white" fill-opacity="0.3"/>
<circle cx="26.3636" cy="49.303" r="1.27273" transform="rotate(180 26.3636 49.303)" fill="white" fill-opacity="0.3"/>
<circle cx="115.455" cy="49.303" r="1.27273" transform="rotate(180 115.455 49.303)" fill="white" fill-opacity="0.3"/>
<circle cx="158.727" cy="137.545" r="1.27273" transform="rotate(180 158.727 137.545)" fill="white" fill-opacity="0.3"/>
<circle cx="70.4848" cy="137.545" r="1.27273" transform="rotate(180 70.4848 137.545)" fill="white" fill-opacity="0.3"/>
<circle cx="70.4848" cy="49.303" r="1.27273" transform="rotate(180 70.4848 49.303)" fill="white" fill-opacity="0.3"/>
<circle cx="159.576" cy="49.303" r="1.27273" transform="rotate(180 159.576 49.303)" fill="white" fill-opacity="0.3"/>
<circle cx="136.667" cy="203.727" r="1.27273" transform="rotate(180 136.667 203.727)" fill="white" fill-opacity="0.3"/>
<circle cx="48.4242" cy="203.727" r="1.27273" transform="rotate(180 48.4242 203.727)" fill="white" fill-opacity="0.3"/>
<circle cx="48.4242" cy="115.485" r="1.27273" transform="rotate(180 48.4242 115.485)" fill="white" fill-opacity="0.3"/>
<circle cx="137.515" cy="115.485" r="1.27273" transform="rotate(180 137.515 115.485)" fill="white" fill-opacity="0.3"/>
<circle cx="92.5454" cy="203.727" r="1.27273" transform="rotate(180 92.5454 203.727)" fill="white" fill-opacity="0.3"/>
<circle cx="4.303" cy="203.727" r="1.27273" transform="rotate(180 4.303 203.727)" fill="white" fill-opacity="0.3"/>
<circle cx="4.30306" cy="115.485" r="1.27273" transform="rotate(180 4.30306 115.485)" fill="white" fill-opacity="0.3"/>
<circle cx="93.3939" cy="115.485" r="1.27273" transform="rotate(180 93.3939 115.485)" fill="white" fill-opacity="0.3"/>
<circle cx="92.5454" cy="159.606" r="1.27273" transform="rotate(180 92.5454 159.606)" fill="white" fill-opacity="0.3"/>
<circle cx="4.30306" cy="159.606" r="1.27273" transform="rotate(180 4.30306 159.606)" fill="white" fill-opacity="0.3"/>
<circle cx="4.30305" cy="71.3637" r="1.27273" transform="rotate(180 4.30305 71.3637)" fill="white" fill-opacity="0.3"/>
<circle cx="93.3939" cy="71.3637" r="1.27273" transform="rotate(180 93.3939 71.3637)" fill="white" fill-opacity="0.3"/>
<circle cx="136.667" cy="159.606" r="1.27273" transform="rotate(180 136.667 159.606)" fill="white" fill-opacity="0.3"/>
<circle cx="48.4242" cy="159.606" r="1.27273" transform="rotate(180 48.4242 159.606)" fill="white" fill-opacity="0.3"/>
<circle cx="48.4242" cy="71.3637" r="1.27273" transform="rotate(180 48.4242 71.3637)" fill="white" fill-opacity="0.3"/>
<circle cx="137.515" cy="71.3637" r="1.27273" transform="rotate(180 137.515 71.3637)" fill="white" fill-opacity="0.3"/>
<circle cx="136.667" cy="181.667" r="1.27273" transform="rotate(180 136.667 181.667)" fill="white" fill-opacity="0.3"/>
<circle cx="48.4242" cy="181.667" r="1.27273" transform="rotate(180 48.4242 181.667)" fill="white" fill-opacity="0.3"/>
<circle cx="48.4242" cy="93.4243" r="1.27273" transform="rotate(180 48.4242 93.4243)" fill="white" fill-opacity="0.3"/>
<circle cx="137.515" cy="93.4243" r="1.27273" transform="rotate(180 137.515 93.4243)" fill="white" fill-opacity="0.3"/>
<circle cx="92.5454" cy="181.667" r="1.27273" transform="rotate(180 92.5454 181.667)" fill="white" fill-opacity="0.3"/>
<circle cx="4.30306" cy="181.667" r="1.27273" transform="rotate(180 4.30306 181.667)" fill="white" fill-opacity="0.3"/>
<circle cx="4.30305" cy="93.4243" r="1.27273" transform="rotate(180 4.30305 93.4243)" fill="white" fill-opacity="0.3"/>
<circle cx="93.3939" cy="93.4243" r="1.27273" transform="rotate(180 93.3939 93.4243)" fill="white" fill-opacity="0.3"/>
<circle cx="92.5454" cy="137.545" r="1.27273" transform="rotate(180 92.5454 137.545)" fill="white" fill-opacity="0.3"/>
<circle cx="4.30306" cy="137.545" r="1.27273" transform="rotate(180 4.30306 137.545)" fill="white" fill-opacity="0.3"/>
<circle cx="4.30305" cy="49.303" r="1.27273" transform="rotate(180 4.30305 49.303)" fill="white" fill-opacity="0.3"/>
<circle cx="93.3939" cy="49.303" r="1.27273" transform="rotate(180 93.3939 49.303)" fill="white" fill-opacity="0.3"/>
<circle cx="136.667" cy="137.545" r="1.27273" transform="rotate(180 136.667 137.545)" fill="white" fill-opacity="0.3"/>
<circle cx="48.4242" cy="137.545" r="1.27273" transform="rotate(180 48.4242 137.545)" fill="white" fill-opacity="0.3"/>
<circle cx="48.4242" cy="49.303" r="1.27273" transform="rotate(180 48.4242 49.303)" fill="white" fill-opacity="0.3"/>
<circle cx="137.515" cy="49.303" r="1.27273" transform="rotate(180 137.515 49.303)" fill="white" fill-opacity="0.3"/>
<circle cx="158.727" cy="192.697" r="1.27273" transform="rotate(180 158.727 192.697)" fill="white" fill-opacity="0.3"/>
<circle cx="70.4848" cy="192.697" r="1.27273" transform="rotate(180 70.4848 192.697)" fill="white" fill-opacity="0.3"/>
<circle cx="70.4848" cy="104.455" r="1.27273" transform="rotate(180 70.4848 104.455)" fill="white" fill-opacity="0.3"/>
<circle cx="159.576" cy="104.455" r="1.27273" transform="rotate(180 159.576 104.455)" fill="white" fill-opacity="0.3"/>
<circle cx="114.606" cy="192.697" r="1.27273" transform="rotate(180 114.606 192.697)" fill="white" fill-opacity="0.3"/>
<circle cx="26.3636" cy="192.697" r="1.27273" transform="rotate(180 26.3636 192.697)" fill="white" fill-opacity="0.3"/>
<circle cx="26.3636" cy="104.455" r="1.27273" transform="rotate(180 26.3636 104.455)" fill="white" fill-opacity="0.3"/>
<circle cx="115.455" cy="104.455" r="1.27273" transform="rotate(180 115.455 104.455)" fill="white" fill-opacity="0.3"/>
<circle cx="114.606" cy="148.576" r="1.27273" transform="rotate(180 114.606 148.576)" fill="white" fill-opacity="0.3"/>
<circle cx="26.3636" cy="148.576" r="1.27273" transform="rotate(180 26.3636 148.576)" fill="white" fill-opacity="0.3"/>
<circle cx="26.3636" cy="60.3332" r="1.27273" transform="rotate(180 26.3636 60.3332)" fill="white" fill-opacity="0.3"/>
<circle cx="115.455" cy="60.3332" r="1.27273" transform="rotate(180 115.455 60.3332)" fill="white" fill-opacity="0.3"/>
<circle cx="158.727" cy="148.576" r="1.27273" transform="rotate(180 158.727 148.576)" fill="white" fill-opacity="0.3"/>
<circle cx="70.4848" cy="148.576" r="1.27273" transform="rotate(180 70.4848 148.576)" fill="white" fill-opacity="0.3"/>
<circle cx="70.4848" cy="60.3332" r="1.27273" transform="rotate(180 70.4848 60.3332)" fill="white" fill-opacity="0.3"/>
<circle cx="159.576" cy="60.3332" r="1.27273" transform="rotate(180 159.576 60.3332)" fill="white" fill-opacity="0.3"/>
<circle cx="158.727" cy="170.636" r="1.27273" transform="rotate(180 158.727 170.636)" fill="white" fill-opacity="0.3"/>
<circle cx="70.4848" cy="170.636" r="1.27273" transform="rotate(180 70.4848 170.636)" fill="white" fill-opacity="0.3"/>
<circle cx="70.4848" cy="82.394" r="1.27273" transform="rotate(180 70.4848 82.394)" fill="white" fill-opacity="0.3"/>
<circle cx="159.576" cy="82.394" r="1.27273" transform="rotate(180 159.576 82.394)" fill="white" fill-opacity="0.3"/>
<circle cx="114.606" cy="170.636" r="1.27273" transform="rotate(180 114.606 170.636)" fill="white" fill-opacity="0.3"/>
<circle cx="26.3636" cy="170.636" r="1.27273" transform="rotate(180 26.3636 170.636)" fill="white" fill-opacity="0.3"/>
<circle cx="26.3636" cy="82.394" r="1.27273" transform="rotate(180 26.3636 82.394)" fill="white" fill-opacity="0.3"/>
<circle cx="115.455" cy="82.394" r="1.27273" transform="rotate(180 115.455 82.394)" fill="white" fill-opacity="0.3"/>
<circle cx="114.606" cy="126.515" r="1.27273" transform="rotate(180 114.606 126.515)" fill="white" fill-opacity="0.3"/>
<circle cx="26.3636" cy="126.515" r="1.27273" transform="rotate(180 26.3636 126.515)" fill="white" fill-opacity="0.3"/>
<circle cx="26.3636" cy="38.2727" r="1.27273" transform="rotate(180 26.3636 38.2727)" fill="white" fill-opacity="0.3"/>
<circle cx="115.455" cy="38.2727" r="1.27273" transform="rotate(180 115.455 38.2727)" fill="white" fill-opacity="0.3"/>
<circle cx="158.727" cy="126.515" r="1.27273" transform="rotate(180 158.727 126.515)" fill="white" fill-opacity="0.3"/>
<circle cx="70.4848" cy="126.515" r="1.27273" transform="rotate(180 70.4848 126.515)" fill="white" fill-opacity="0.3"/>
<circle cx="70.4848" cy="38.2727" r="1.27273" transform="rotate(180 70.4848 38.2727)" fill="white" fill-opacity="0.3"/>
<circle cx="159.576" cy="38.2727" r="1.27273" transform="rotate(180 159.576 38.2727)" fill="white" fill-opacity="0.3"/>
<circle cx="136.667" cy="192.697" r="1.27273" transform="rotate(180 136.667 192.697)" fill="white" fill-opacity="0.3"/>
<circle cx="48.4242" cy="192.697" r="1.27273" transform="rotate(180 48.4242 192.697)" fill="white" fill-opacity="0.3"/>
<circle cx="48.4242" cy="104.455" r="1.27273" transform="rotate(180 48.4242 104.455)" fill="white" fill-opacity="0.3"/>
<circle cx="137.515" cy="104.455" r="1.27273" transform="rotate(180 137.515 104.455)" fill="white" fill-opacity="0.3"/>
<circle cx="92.5454" cy="192.697" r="1.27273" transform="rotate(180 92.5454 192.697)" fill="white" fill-opacity="0.3"/>
<circle cx="4.303" cy="192.697" r="1.27273" transform="rotate(180 4.303 192.697)" fill="white" fill-opacity="0.3"/>
<circle cx="4.30306" cy="104.455" r="1.27273" transform="rotate(180 4.30306 104.455)" fill="white" fill-opacity="0.3"/>
<circle cx="93.3939" cy="104.455" r="1.27273" transform="rotate(180 93.3939 104.455)" fill="white" fill-opacity="0.3"/>
<circle cx="92.5454" cy="148.576" r="1.27273" transform="rotate(180 92.5454 148.576)" fill="white" fill-opacity="0.3"/>
<circle cx="4.30306" cy="148.576" r="1.27273" transform="rotate(180 4.30306 148.576)" fill="white" fill-opacity="0.3"/>
<circle cx="4.30305" cy="60.3332" r="1.27273" transform="rotate(180 4.30305 60.3332)" fill="white" fill-opacity="0.3"/>
<circle cx="93.3939" cy="60.3332" r="1.27273" transform="rotate(180 93.3939 60.3332)" fill="white" fill-opacity="0.3"/>
<circle cx="136.667" cy="148.576" r="1.27273" transform="rotate(180 136.667 148.576)" fill="white" fill-opacity="0.3"/>
<circle cx="48.4242" cy="148.576" r="1.27273" transform="rotate(180 48.4242 148.576)" fill="white" fill-opacity="0.3"/>
<circle cx="48.4242" cy="60.3332" r="1.27273" transform="rotate(180 48.4242 60.3332)" fill="white" fill-opacity="0.3"/>
<circle cx="137.515" cy="60.3332" r="1.27273" transform="rotate(180 137.515 60.3332)" fill="white" fill-opacity="0.3"/>
<circle cx="136.667" cy="170.636" r="1.27273" transform="rotate(180 136.667 170.636)" fill="white" fill-opacity="0.3"/>
<circle cx="48.4242" cy="170.636" r="1.27273" transform="rotate(180 48.4242 170.636)" fill="white" fill-opacity="0.3"/>
<circle cx="48.4242" cy="82.394" r="1.27273" transform="rotate(180 48.4242 82.394)" fill="white" fill-opacity="0.3"/>
<circle cx="137.515" cy="82.394" r="1.27273" transform="rotate(180 137.515 82.394)" fill="white" fill-opacity="0.3"/>
<circle cx="92.5454" cy="170.636" r="1.27273" transform="rotate(180 92.5454 170.636)" fill="white" fill-opacity="0.3"/>
<circle cx="4.30306" cy="170.636" r="1.27273" transform="rotate(180 4.30306 170.636)" fill="white" fill-opacity="0.3"/>
<circle cx="4.30305" cy="82.394" r="1.27273" transform="rotate(180 4.30305 82.394)" fill="white" fill-opacity="0.3"/>
<circle cx="93.3939" cy="82.394" r="1.27273" transform="rotate(180 93.3939 82.394)" fill="white" fill-opacity="0.3"/>
<circle cx="92.5454" cy="126.515" r="1.27273" transform="rotate(180 92.5454 126.515)" fill="white" fill-opacity="0.3"/>
<circle cx="4.30306" cy="126.515" r="1.27273" transform="rotate(180 4.30306 126.515)" fill="white" fill-opacity="0.3"/>
<circle cx="4.303" cy="38.2727" r="1.27273" transform="rotate(180 4.303 38.2727)" fill="white" fill-opacity="0.3"/>
<circle cx="93.3939" cy="38.2727" r="1.27273" transform="rotate(180 93.3939 38.2727)" fill="white" fill-opacity="0.3"/>
<circle cx="136.667" cy="126.515" r="1.27273" transform="rotate(180 136.667 126.515)" fill="white" fill-opacity="0.3"/>
<circle cx="48.4242" cy="126.515" r="1.27273" transform="rotate(180 48.4242 126.515)" fill="white" fill-opacity="0.3"/>
<circle cx="48.4242" cy="38.2727" r="1.27273" transform="rotate(180 48.4242 38.2727)" fill="white" fill-opacity="0.3"/>
<circle cx="137.515" cy="38.2727" r="1.27273" transform="rotate(180 137.515 38.2727)" fill="white" fill-opacity="0.3"/>
</mask>
<g mask="url(#mask0)">
<rect x="32.443" y="349.103" width="251.387" height="196.292" transform="rotate(-135 32.443 349.103)" fill="#C4C4C4"/>
</g>
<path opacity="0.2" d="M69.0051 103.225L67.8409 102.279L66.4467 103.995L68.5564 104.656L69.0051 103.225ZM88.9851 116.545L90.1541 115.605L88.9851 116.545ZM20.3501 175.375L19.5811 176.663L19.5895 176.668L20.3501 175.375ZM2.40506 153.545L1.66175 152.242L0.542441 152.881L1.00504 154.083L2.40506 153.545ZM31.2651 137.08L32.7013 136.647L32.1578 134.844L30.5218 135.777L31.2651 137.08ZM59.7551 147.255L58.7789 146.116L58.7651 146.128L58.7516 146.14L59.7551 147.255ZM59.7551 129.68L58.7516 130.795L58.7808 130.821L58.8113 130.846L59.7551 129.68ZM41.9951 126.35L40.7526 127.19L41.1988 127.85H41.9951V126.35ZM29.2301 107.48L28.0687 106.531L27.3618 107.395L27.9876 108.32L29.2301 107.48ZM49.9501 82.135L51.1114 83.0844L53.1138 80.635H49.9501V82.135ZM6.47506 82.135H4.97506V83.635H6.47506V82.135ZM6.47506 50.5V49H4.97506V50.5H6.47506ZM90.6501 50.5H92.1501V49H90.6501V50.5ZM90.6501 76.585L91.8142 77.5309L92.1501 77.1176V76.585H90.6501ZM68.5564 104.656C76.558 107.164 82.9593 111.444 87.816 117.485L90.1541 115.605C84.8975 109.066 77.9788 104.466 69.4537 101.794L68.5564 104.656ZM87.816 117.485C92.6367 123.481 95.0701 130.725 95.0701 139.3H98.0701C98.0701 130.115 95.4468 122.189 90.1541 115.605L87.816 117.485ZM95.0701 139.3C95.0701 152.877 90.6438 163.146 81.926 170.333L83.8342 172.647C93.3696 164.787 98.0701 153.596 98.0701 139.3H95.0701ZM81.926 170.333C73.1044 177.604 62.1706 181.275 49.0251 181.275V184.275C62.7662 184.275 74.4024 180.422 83.8342 172.647L81.926 170.333ZM49.0251 181.275C38.5342 181.275 29.2435 178.866 21.1106 174.082L19.5895 176.668C28.2299 181.75 38.0559 184.275 49.0251 184.275V181.275ZM21.119 174.087C13.1651 169.339 7.39368 162.337 3.80508 153.007L1.00504 154.083C4.81644 163.993 11.0083 171.545 19.5811 176.663L21.119 174.087ZM3.14837 154.848L32.0084 138.383L30.5218 135.777L1.66175 152.242L3.14837 154.848ZM29.8289 137.513C31.2526 142.237 33.5604 145.915 36.8321 148.403C40.108 150.894 44.21 152.085 49.0251 152.085V149.085C44.7135 149.085 41.2922 148.025 38.648 146.015C35.9997 144.001 33.9909 140.926 32.7013 136.647L29.8289 137.513ZM49.0251 152.085C53.9301 152.085 57.9211 150.924 60.7585 148.37L58.7516 146.14C56.6557 148.026 53.4933 149.085 49.0251 149.085V152.085ZM60.7313 148.394C63.6843 145.863 65.1401 142.471 65.1401 138.375H62.1401C62.1401 141.679 61.0058 144.207 58.7789 146.116L60.7313 148.394ZM65.1401 138.375C65.1401 134.279 63.6825 130.929 60.6989 128.514L58.8113 130.846C61.0076 132.624 62.1401 135.071 62.1401 138.375H65.1401ZM60.7585 128.565C57.9211 126.011 53.9301 124.85 49.0251 124.85V127.85C53.4933 127.85 56.6557 128.909 58.7516 130.795L60.7585 128.565ZM49.0251 124.85H41.9951V127.85H49.0251V124.85ZM43.2375 125.51L30.4725 106.64L27.9876 108.32L40.7526 127.19L43.2375 125.51ZM30.3914 108.429L51.1114 83.0844L48.7887 81.1856L28.0687 106.531L30.3914 108.429ZM49.9501 80.635H6.47506V83.635H49.9501V80.635ZM7.97506 82.135V50.5H4.97506V82.135H7.97506ZM6.47506 52H90.6501V49H6.47506V52ZM89.1501 50.5V76.585H92.1501V50.5H89.1501ZM89.4859 75.6391L67.8409 102.279L70.1692 104.171L91.8142 77.5309L89.4859 75.6391ZM209.023 69.185L207.941 70.224L207.946 70.2295L207.951 70.2349L209.023 69.185ZM209.023 161.5L207.946 160.455L207.946 160.456L209.023 161.5ZM111.528 180H110.028V181.5H111.528V180ZM111.528 50.5V49H110.028V50.5H111.528ZM186.268 139.115L187.351 140.153L187.356 140.147L187.361 140.142L186.268 139.115ZM186.268 91.57L185.174 92.5966L185.179 92.6023L185.185 92.6079L186.268 91.57ZM145.568 82.505V81.005H144.068V82.505H145.568ZM145.568 147.995H144.068V149.495H145.568V147.995ZM164.253 52C181.744 52 196.271 58.0734 207.941 70.224L210.104 68.146C197.847 55.3833 182.528 49 164.253 49V52ZM207.951 70.2349C219.744 82.2686 225.653 97.2381 225.653 115.25H228.653C228.653 96.5086 222.474 80.7681 210.094 68.1351L207.951 70.2349ZM225.653 115.25C225.653 133.262 219.744 148.296 207.946 160.455L210.099 162.545C222.475 149.79 228.653 133.991 228.653 115.25H225.653ZM207.946 160.456C196.278 172.485 181.749 178.5 164.253 178.5V181.5C182.523 181.5 197.841 175.182 210.099 162.544L207.946 160.456ZM164.253 178.5H111.528V181.5H164.253V178.5ZM113.028 180V50.5H110.028V180H113.028ZM111.528 52H164.253V49H111.528V52ZM164.253 149.495C173.62 149.495 181.365 146.399 187.351 140.153L185.185 138.077C179.824 143.671 172.891 146.495 164.253 146.495V149.495ZM187.361 140.142C193.344 133.769 196.278 125.421 196.278 115.25H193.278C193.278 124.812 190.538 132.375 185.174 138.088L187.361 140.142ZM196.278 115.25C196.278 105.08 193.344 96.7864 187.351 90.5321L185.185 92.6079C190.538 98.1936 193.278 105.687 193.278 115.25H196.278ZM187.361 90.5433C181.378 84.1702 173.63 81.005 164.253 81.005V84.005C172.881 84.005 179.81 86.8832 185.174 92.5966L187.361 90.5433ZM164.253 81.005H145.568V84.005H164.253V81.005ZM144.068 82.505V147.995H147.068V82.505H144.068ZM145.568 149.495H164.253V146.495H145.568V149.495Z" fill="white"/>
</svg>
