<svg width="40" height="30" viewBox="0 0 40 30" fill="none" xmlns="http://www.w3.org/2000/svg">
<path d="M9.33347 21.0417C7.12745 21.0417 5.33346 22.8357 5.33346 25.0418C5.33346 27.2478 7.12745 29.0418 9.33347 29.0418C11.5395 29.0418 13.3335 27.2478 13.3335 25.0418C13.3335 22.8357 11.5394 21.0417 9.33347 21.0417ZM9.33347 27.7084C7.86277 27.7084 6.66682 26.5124 6.66682 25.0418C6.66682 23.5711 7.86284 22.3751 9.33347 22.3751C10.8041 22.3751 12.0001 23.5711 12.0001 25.0418C12.0001 26.5124 10.8041 27.7084 9.33347 27.7084Z" fill="#F2F2F2"/>
<path d="M32.0001 21.0417C29.7941 21.0417 28.0001 22.8357 28.0001 25.0418C28.0001 27.2478 29.7941 29.0418 32.0001 29.0418C34.2062 29.0418 36.0002 27.2478 36.0002 25.0418C36.0002 22.8357 34.2062 21.0417 32.0001 21.0417ZM32.0001 27.7084C30.5294 27.7084 29.3335 26.5124 29.3335 25.0418C29.3335 23.5711 30.5295 22.3751 32.0001 22.3751C33.4708 22.3751 34.6668 23.5711 34.6668 25.0418C34.6668 26.5124 33.4708 27.7084 32.0001 27.7084Z" fill="#F2F2F2"/>
<path d="M39.8941 17.3479L33.8941 8.01451C33.7714 7.82381 33.5601 7.7085 33.3334 7.7085H26.0001C25.6314 7.7085 25.3335 8.00717 25.3335 8.37514V25.0418C25.3335 25.4105 25.6314 25.7085 26.0001 25.7085H28.6667V24.3751H26.6667V9.04186H32.9694L38.6668 17.9045V24.3753H35.3334V25.7085H39.3334C39.7021 25.7085 40.0001 25.4106 40.0001 25.0419V17.7085C40.0001 17.5812 39.9635 17.4552 39.8941 17.3479Z" fill="#F2F2F2"/>
<path d="M29.3335 16.375V11.7084H34.6668V10.375H28.6668C28.2982 10.375 28.0002 10.6737 28.0002 11.0416V17.0417C28.0002 17.4103 28.2982 17.7083 28.6668 17.7083H38.6669V16.3749H29.3335V16.375Z" fill="#F2F2F2"/>
<path d="M26.0001 3.04175H0.666703C0.298734 3.04175 6.10352e-05 3.34042 6.10352e-05 3.70839V25.0418C6.10352e-05 25.4105 0.298734 25.7084 0.666703 25.7084H6.00008V24.3751H1.33342V4.37503H25.3335V24.3751H12.6667V25.7084H26.0001C26.3688 25.7084 26.6668 25.4105 26.6668 25.0418V3.70839C26.6668 3.34042 26.3688 3.04175 26.0001 3.04175Z" fill="#F2F2F2"/>
<path d="M4.66669 21.7085H0.666676V23.0419H4.66669V21.7085Z" fill="#F2F2F2"/>
<path d="M25.3335 21.7085H14.0001V23.0419H25.3335V21.7085Z" fill="#F2F2F2"/>
<path d="M39.3335 21.7085H36.6668V23.0419H39.3335V21.7085Z" fill="#F2F2F2"/>
<path d="M26.0001 5.7085H2.66673V7.04186H26.0001V5.7085Z" fill="#F2F2F2"/>
<path d="M10.0001 24.375H8.66675V25.7084H10.0001V24.375Z" fill="#F2F2F2"/>
<path d="M32.6668 24.375H31.3335V25.7084H32.6668V24.375Z" fill="#F2F2F2"/>
<path d="M12.0001 0.375H2.66673V1.70836H12.0001V0.375Z" fill="#F2F2F2"/>
<path d="M1.33342 0.375H6.10352e-05V1.70836H1.33342V0.375Z" fill="#F2F2F2"/>
</svg>
