<svg width="40" height="31" viewBox="0 0 40 31" fill="none" xmlns="http://www.w3.org/2000/svg">
<path d="M38.2119 22.543L35.792 21.8516C35.6876 21.8217 35.6146 21.725 35.6146 21.6163V20.8086C35.8115 20.6722 35.9993 20.5195 36.1748 20.3491C37.0256 19.5235 37.4941 18.4161 37.4941 17.2308V16.1162L37.7281 15.6483C37.9849 15.1346 38.1206 14.5595 38.1206 13.9853V10.9658C38.1206 10.6422 37.8583 10.3798 37.5347 10.3798H31.8962C29.8458 10.3798 28.1777 12.048 28.1777 14.0983V14.1332C28.1777 14.6107 28.2906 15.0889 28.5041 15.5159L28.8042 16.1161V17.0731C28.8042 18.5898 29.5516 19.9507 30.6837 20.7696L30.6839 21.6162C30.6839 21.7467 30.6839 21.8008 30.2001 21.9391L29.0193 22.2764L25.6036 21.0344C25.6158 20.8732 25.5615 20.7093 25.4439 20.5858L24.3524 19.4391V17.5141C24.4678 17.419 24.5815 17.3213 24.6918 17.218C26.0687 15.9274 26.8584 14.1052 26.8584 12.2188V10.6814C27.2742 9.77664 27.4849 8.81922 27.4849 7.8332V1.56836C27.4849 1.24477 27.2226 0.982422 26.899 0.982422H18.128C15.0412 0.982422 12.5301 3.49367 12.5301 6.58031V7.83336C12.5301 8.81937 12.7408 9.7768 13.1565 10.6816V12.0043C13.1565 14.1946 14.1305 16.1679 15.6626 17.4688V19.4391L14.5711 20.5859C14.4535 20.7094 14.3991 20.8733 14.4114 21.0345L10.8063 22.3453C10.5451 22.4403 10.3023 22.569 10.0819 22.7248L9.51584 22.4418C11.201 21.7083 11.7348 20.6766 11.7605 20.6254C11.843 20.4605 11.843 20.2662 11.7605 20.1013C11.338 19.2565 11.2869 17.708 11.2458 16.4637C11.2321 16.0495 11.2191 15.6582 11.1944 15.3098C10.9946 12.4993 8.85803 10.3798 6.22444 10.3798C3.59084 10.3798 1.4542 12.4992 1.25451 15.3098C1.22975 15.6583 1.21678 16.0496 1.20311 16.4639C1.16201 17.708 1.11076 19.2564 0.68842 20.1012C0.60592 20.2662 0.60592 20.4604 0.68842 20.6253C0.714045 20.6766 1.24678 21.7061 2.9353 22.4405L1.36287 23.2266C0.522249 23.6473 6.10352e-05 24.4922 6.10352e-05 25.432V29.7608C6.10352e-05 30.0844 0.262405 30.3467 0.585999 30.3467C0.909592 30.3467 1.17194 30.0844 1.17194 29.7608V25.432C1.17194 24.9388 1.44592 24.4955 1.88694 24.2749L3.84498 23.2959L4.52608 23.9432C5.00233 24.3958 5.61326 24.622 6.22444 24.622C6.83545 24.622 7.4467 24.3956 7.9228 23.9432L8.60381 23.296L9.24225 23.6152C8.94162 24.0962 8.771 24.6603 8.771 25.2512V29.7609C8.771 30.0845 9.03334 30.3469 9.35694 30.3469C9.68053 30.3469 9.94287 30.0845 9.94287 29.7609V25.2512C9.94287 24.4468 10.4508 23.7216 11.2068 23.4467L15.0077 22.0646L16.59 24.4381C16.7922 24.7416 17.1164 24.9362 17.4793 24.9721C17.5197 24.9761 17.56 24.978 17.6001 24.978C17.9203 24.978 18.2269 24.852 18.4562 24.6229L19.4215 23.6576V29.761C19.4215 30.0846 19.6838 30.347 20.0074 30.347C20.331 30.347 20.5933 30.0846 20.5933 29.761V23.6576L21.5587 24.6229C21.7878 24.8521 22.0944 24.9781 22.4147 24.9781C22.4548 24.9781 22.4951 24.9762 22.5355 24.9722C22.8984 24.9363 23.2226 24.7416 23.4248 24.4382L25.0072 22.0648L28.808 23.4469C29.564 23.7218 30.0719 24.447 30.0719 25.2513V29.7611C30.0719 30.0847 30.3343 30.347 30.6579 30.347C30.9815 30.347 31.2438 30.0847 31.2438 29.7611V25.2513C31.2438 24.4366 30.9201 23.6726 30.3772 23.1075L30.5219 23.0662C30.668 23.0245 30.8672 22.9673 31.0672 22.8693L32.5632 24.3653V29.7611C32.5632 30.0847 32.8255 30.347 33.1491 30.347C33.4727 30.347 33.7351 30.0847 33.7351 29.7611V24.3653L35.2207 22.8797C35.2997 22.9198 35.3826 22.9538 35.47 22.9787L37.89 23.6701C38.4423 23.8279 38.8282 24.3394 38.8282 24.9139V29.7611C38.8282 30.0847 39.0905 30.347 39.4141 30.347C39.7377 30.347 40.0001 30.0847 40.0001 29.7611V24.9139C40.0001 23.8188 39.2647 22.8438 38.2119 22.543ZM3.75905 21.508C2.66303 21.1137 2.11326 20.5879 1.87858 20.3008C2.03858 19.8825 2.14233 19.4034 2.21256 18.8977C2.53569 19.6725 3.07686 20.3339 3.75905 20.8058V21.508ZM7.11569 23.0938C6.61592 23.5687 5.83303 23.5686 5.33342 23.0938L4.7885 22.5759C4.88045 22.4037 4.931 22.2084 4.931 22.0037V21.3792C5.33975 21.507 5.77428 21.5759 6.22459 21.5759C6.67436 21.5759 7.10865 21.5066 7.51811 21.3796L7.51803 22.0037C7.51803 22.2084 7.5685 22.4037 7.66053 22.5761L7.11569 23.0938ZM6.22475 20.404C4.47506 20.404 3.0517 18.9805 3.0517 17.2309C3.0517 16.9073 2.78936 16.645 2.46576 16.645C2.43295 16.645 2.40092 16.6484 2.36959 16.6536C2.37131 16.6032 2.37295 16.5527 2.37467 16.5028C2.38772 16.0999 2.4003 15.7194 2.4235 15.393C2.49834 14.3402 2.91905 13.37 3.60811 12.6611C4.30334 11.9458 5.23256 11.5519 6.22459 11.5519C7.21662 11.5519 8.14576 11.9458 8.84108 12.6611C9.53014 13.37 9.95084 14.3402 10.0257 15.393C10.0488 15.7193 10.0615 16.0998 10.0747 16.5026C10.0759 16.5372 10.0771 16.5723 10.0783 16.6071C9.44076 15.6249 8.45623 14.9011 7.18412 14.4923C6.00889 14.1148 4.99811 14.1381 4.95545 14.1392C4.80201 14.1435 4.65639 14.2077 4.5499 14.3182L3.49272 15.4146C3.26811 15.6476 3.27483 16.0185 3.5078 16.2431C3.74076 16.4677 4.1117 16.4609 4.33631 16.228L5.216 15.3158C5.97358 15.3528 8.41084 15.6362 9.35873 17.7235C9.12022 19.2616 7.79819 20.404 6.22475 20.404ZM8.68983 21.51L8.68991 20.8112C9.37155 20.3419 9.9135 19.6817 10.2369 18.9011C10.3071 19.4056 10.4108 19.8836 10.5705 20.3009C10.3371 20.5853 9.78475 21.1158 8.68983 21.51ZM14.3284 12.0042V10.5505C14.3284 10.4623 14.3085 10.3752 14.2701 10.2957C13.8931 9.51492 13.7019 8.68648 13.7019 7.83336V6.58039C13.7019 4.13984 15.6875 2.15437 18.128 2.15437H26.313V7.83344C26.313 8.68656 26.1219 9.515 25.7448 10.2958C25.7065 10.3752 25.6865 10.4623 25.6865 10.5505V12.2189C25.6865 13.8057 25.0487 15.2775 23.8904 16.3632C23.7458 16.4987 23.5957 16.6257 23.4405 16.7441C23.4371 16.7464 23.4338 16.749 23.4305 16.7514C22.3454 17.5752 21.0163 17.9756 19.6283 17.8857C16.6564 17.6933 14.3284 15.1098 14.3284 12.0042ZM17.6276 23.7941C17.6235 23.7982 17.614 23.8078 17.5949 23.8058C17.5758 23.8039 17.5683 23.7927 17.5651 23.7879L15.7429 21.0545L16.3293 20.4383L19.0937 22.3279L17.6276 23.7941ZM20.0075 21.533L16.8344 19.3641V18.2703C17.6555 18.7141 18.5747 18.9917 19.5525 19.055C19.7069 19.065 19.8605 19.0699 20.0135 19.0699C21.1339 19.0699 22.2122 18.8021 23.1805 18.2937V19.3641L20.0075 21.533ZM22.4498 23.788C22.4466 23.7929 22.4391 23.8041 22.4201 23.8059C22.4009 23.8084 22.3915 23.7983 22.3874 23.7943L20.9212 22.3281L23.6857 20.4384L24.2722 21.0546L22.4498 23.788ZM33.1491 23.2937L31.8194 21.9641C31.8426 21.8587 31.8558 21.7433 31.8557 21.616L31.8556 21.3687C32.2246 21.4898 32.6135 21.5617 33.0159 21.5737C33.0611 21.5752 33.1058 21.5758 33.1508 21.5758C33.5955 21.5758 34.0296 21.5086 34.4427 21.3804V21.6163C34.4427 21.7332 34.4574 21.8477 34.4851 21.9578L33.1491 23.2937ZM35.3587 19.5082C34.7377 20.1109 33.9173 20.4291 33.0512 20.4024C31.3555 20.3516 29.9761 18.858 29.9761 17.0733V15.9779C29.9761 15.8869 29.9549 15.7972 29.9142 15.7159L29.5522 14.992C29.4197 14.7267 29.3496 14.4298 29.3496 14.1333V14.0984C29.3496 12.6941 30.492 11.5518 31.8962 11.5518H36.9487V13.9854C36.9487 14.3787 36.8558 14.7725 36.6799 15.1243L36.3841 15.7159C36.3434 15.7973 36.3223 15.8869 36.3223 15.9779V17.2309C36.3223 18.0965 35.9801 18.9052 35.3587 19.5082Z" fill="#F2F2F2"/>
</svg>
