<svg width="29" height="29" viewBox="0 0 29 29" fill="none" xmlns="http://www.w3.org/2000/svg">
<path d="M24.5812 0H4.21875C1.89272 0 0 1.89272 0 4.21875V24.5812C0 26.9073 1.89272 28.8 4.21875 28.8H24.5812C26.9073 28.8 28.8 26.9073 28.8 24.5812V4.21875C28.8 1.89272 26.9073 0 24.5812 0ZM14.4562 21.9375C10.2689 21.9375 6.8625 18.5311 6.8625 14.3438C6.8625 10.1564 10.2689 6.75 14.4562 6.75C18.6436 6.75 22.05 10.1564 22.05 14.3438C22.05 18.5311 18.6436 21.9375 14.4562 21.9375ZM22.8937 8.4375C21.498 8.4375 20.3625 7.30195 20.3625 5.90625C20.3625 4.51055 21.498 3.375 22.8937 3.375C24.2895 3.375 25.425 4.51055 25.425 5.90625C25.425 7.30195 24.2895 8.4375 22.8937 8.4375Z" fill="#F2F2F2"/>
</svg>
