<svg width="149" height="70" viewBox="0 0 149 70" fill="none" xmlns="http://www.w3.org/2000/svg">
<path d="M55.0422 20.0638L37.8628 59.8114L12.0301 25.0598L55.0422 20.0638Z" fill="white"/>
<path d="M53.5755 44.9378L37.8844 59.7606L12.0517 25.009L53.5755 44.9378Z" fill="url(#paint0_linear)"/>
<path d="M86.1445 35H85.0635L77.707 24.0488V35H76.6172V22.2031H77.707L85.0723 33.1631V22.2031H86.1445V35ZM95.1533 35C95.0479 34.7012 94.9805 34.2588 94.9512 33.6729C94.582 34.1533 94.1104 34.5254 93.5361 34.7891C92.9678 35.0469 92.3643 35.1758 91.7256 35.1758C90.8115 35.1758 90.0703 34.9209 89.502 34.4111C88.9395 33.9014 88.6582 33.2568 88.6582 32.4775C88.6582 31.5518 89.042 30.8193 89.8096 30.2803C90.583 29.7412 91.6582 29.4717 93.0352 29.4717H94.9424V28.3906C94.9424 27.7109 94.7314 27.1777 94.3096 26.791C93.8936 26.3984 93.2842 26.2021 92.4814 26.2021C91.749 26.2021 91.1426 26.3896 90.6621 26.7646C90.1816 27.1396 89.9414 27.5908 89.9414 28.1182L88.8867 28.1094C88.8867 27.3535 89.2383 26.7002 89.9414 26.1494C90.6445 25.5928 91.5088 25.3145 92.5342 25.3145C93.5947 25.3145 94.4297 25.5811 95.0391 26.1143C95.6543 26.6416 95.9707 27.3799 95.9883 28.3291V32.8291C95.9883 33.749 96.085 34.4375 96.2783 34.8945V35H95.1533ZM91.8486 34.2441C92.5518 34.2441 93.1787 34.0742 93.7295 33.7344C94.2861 33.3945 94.6904 32.9404 94.9424 32.3721V30.2803H93.0615C92.0127 30.292 91.1924 30.4854 90.6006 30.8604C90.0088 31.2295 89.7129 31.7393 89.7129 32.3896C89.7129 32.9229 89.9092 33.3652 90.3018 33.7168C90.7002 34.0684 91.2158 34.2441 91.8486 34.2441ZM99.7588 25.4902L99.7939 27.0371C100.146 26.4629 100.585 26.0322 101.112 25.7451C101.64 25.458 102.226 25.3145 102.87 25.3145C104.37 25.3145 105.322 25.9297 105.727 27.1602C106.066 26.5684 106.521 26.1143 107.089 25.7979C107.657 25.4756 108.284 25.3145 108.97 25.3145C111.009 25.3145 112.049 26.4277 112.09 28.6543V35H111.035V28.7334C111.029 27.8838 110.845 27.2539 110.481 26.8438C110.124 26.4336 109.538 26.2285 108.724 26.2285C107.968 26.2402 107.329 26.4863 106.808 26.9668C106.286 27.4414 105.996 28.0215 105.938 28.707V35H104.883V28.6543C104.877 27.8398 104.684 27.2334 104.303 26.835C103.928 26.4307 103.348 26.2285 102.562 26.2285C101.9 26.2285 101.332 26.4189 100.857 26.7998C100.383 27.1748 100.031 27.7344 99.8027 28.4785V35H98.748V25.4902H99.7588ZM118.444 35.1758C117.636 35.1758 116.903 34.9766 116.247 34.5781C115.597 34.1797 115.09 33.626 114.727 32.917C114.363 32.2021 114.182 31.4023 114.182 30.5176V30.1396C114.182 29.2256 114.357 28.4023 114.709 27.6699C115.066 26.9375 115.562 26.3633 116.194 25.9473C116.827 25.5254 117.513 25.3145 118.251 25.3145C119.405 25.3145 120.319 25.71 120.993 26.501C121.673 27.2861 122.013 28.3613 122.013 29.7266V30.3154H115.228V30.5176C115.228 31.5957 115.535 32.4951 116.15 33.2158C116.771 33.9307 117.551 34.2881 118.488 34.2881C119.051 34.2881 119.546 34.1855 119.974 33.9805C120.407 33.7754 120.8 33.4473 121.151 32.9961L121.811 33.4971C121.037 34.6162 119.915 35.1758 118.444 35.1758ZM118.251 26.2109C117.46 26.2109 116.792 26.501 116.247 27.0811C115.708 27.6611 115.38 28.4404 115.263 29.4189H120.967V29.3047C120.938 28.3906 120.677 27.6465 120.185 27.0723C119.692 26.498 119.048 26.2109 118.251 26.2109ZM79.8867 55.2881C80.6191 55.2881 81.2314 55.083 81.7236 54.6729C82.2217 54.2568 82.4912 53.7207 82.5322 53.0645H83.543C83.5137 53.6445 83.332 54.1748 82.998 54.6553C82.6641 55.1299 82.2188 55.502 81.6621 55.7715C81.1113 56.041 80.5195 56.1758 79.8867 56.1758C78.6387 56.1758 77.6484 55.7422 76.916 54.875C76.1895 54.0078 75.8262 52.8418 75.8262 51.377V51.0605C75.8262 50.123 75.9902 49.2939 76.3184 48.5732C76.6465 47.8525 77.1152 47.2959 77.7246 46.9033C78.3398 46.5107 79.0576 46.3145 79.8779 46.3145C80.9209 46.3145 81.7793 46.625 82.4531 47.2461C83.1328 47.8672 83.4961 48.6846 83.543 49.6982H82.5322C82.4854 48.9541 82.2158 48.3535 81.7236 47.8965C81.2373 47.4395 80.6221 47.2109 79.8779 47.2109C78.9287 47.2109 78.1904 47.5537 77.6631 48.2393C77.1416 48.9248 76.8809 49.8857 76.8809 51.1221V51.4297C76.8809 52.6426 77.1416 53.5889 77.6631 54.2686C78.1904 54.9482 78.9316 55.2881 79.8867 55.2881ZM85.0723 51.1045C85.0723 50.1904 85.248 49.3672 85.5996 48.6348C85.957 47.9023 86.458 47.334 87.1025 46.9297C87.7529 46.5195 88.4883 46.3145 89.3086 46.3145C90.5742 46.3145 91.5996 46.7598 92.3848 47.6504C93.1699 48.5352 93.5625 49.71 93.5625 51.1748V51.3945C93.5625 52.3145 93.3838 53.1436 93.0264 53.8818C92.6748 54.6143 92.1768 55.1797 91.5322 55.5781C90.8877 55.9766 90.1523 56.1758 89.3262 56.1758C88.0664 56.1758 87.041 55.7334 86.25 54.8486C85.4648 53.958 85.0723 52.7803 85.0723 51.3154V51.1045ZM86.127 51.3945C86.127 52.5312 86.4199 53.4658 87.0059 54.1982C87.5977 54.9248 88.3711 55.2881 89.3262 55.2881C90.2754 55.2881 91.043 54.9248 91.6289 54.1982C92.2207 53.4658 92.5166 52.502 92.5166 51.3066V51.1045C92.5166 50.3779 92.3818 49.7129 92.1123 49.1094C91.8428 48.5059 91.4648 48.04 90.9785 47.7119C90.4922 47.3779 89.9355 47.2109 89.3086 47.2109C88.3711 47.2109 87.6064 47.5801 87.0146 48.3184C86.4229 49.0508 86.127 50.0117 86.127 51.2012V51.3945ZM96.7002 46.4902L96.7354 48.0371C97.0869 47.4629 97.5264 47.0322 98.0537 46.7451C98.5811 46.458 99.167 46.3145 99.8115 46.3145C101.312 46.3145 102.264 46.9297 102.668 48.1602C103.008 47.5684 103.462 47.1143 104.03 46.7979C104.599 46.4756 105.226 46.3145 105.911 46.3145C107.95 46.3145 108.99 47.4277 109.031 49.6543V56H107.977V49.7334C107.971 48.8838 107.786 48.2539 107.423 47.8438C107.065 47.4336 106.479 47.2285 105.665 47.2285C104.909 47.2402 104.271 47.4863 103.749 47.9668C103.228 48.4414 102.938 49.0215 102.879 49.707V56H101.824V49.6543C101.818 48.8398 101.625 48.2334 101.244 47.835C100.869 47.4307 100.289 47.2285 99.5039 47.2285C98.8418 47.2285 98.2734 47.4189 97.7988 47.7998C97.3242 48.1748 96.9727 48.7344 96.7441 49.4785V56H95.6895V46.4902H96.7002ZM119.35 51.3418C119.35 52.8242 119.021 54.002 118.365 54.875C117.709 55.7422 116.83 56.1758 115.729 56.1758C114.428 56.1758 113.432 55.7188 112.74 54.8047V59.6562H111.694V46.4902H112.67L112.723 47.835C113.408 46.8213 114.401 46.3145 115.702 46.3145C116.839 46.3145 117.729 46.7451 118.374 47.6064C119.024 48.4678 119.35 49.6631 119.35 51.1924V51.3418ZM118.295 51.1572C118.295 49.9443 118.046 48.9863 117.548 48.2832C117.05 47.5801 116.355 47.2285 115.465 47.2285C114.82 47.2285 114.267 47.3838 113.804 47.6943C113.341 48.0049 112.986 48.4561 112.74 49.0479V53.6094C112.992 54.1543 113.353 54.5703 113.821 54.8574C114.29 55.1445 114.844 55.2881 115.482 55.2881C116.367 55.2881 117.056 54.9365 117.548 54.2334C118.046 53.5244 118.295 52.499 118.295 51.1572ZM127.69 56C127.585 55.7012 127.518 55.2588 127.488 54.6729C127.119 55.1533 126.647 55.5254 126.073 55.7891C125.505 56.0469 124.901 56.1758 124.263 56.1758C123.349 56.1758 122.607 55.9209 122.039 55.4111C121.477 54.9014 121.195 54.2568 121.195 53.4775C121.195 52.5518 121.579 51.8193 122.347 51.2803C123.12 50.7412 124.195 50.4717 125.572 50.4717H127.479V49.3906C127.479 48.7109 127.269 48.1777 126.847 47.791C126.431 47.3984 125.821 47.2021 125.019 47.2021C124.286 47.2021 123.68 47.3896 123.199 47.7646C122.719 48.1396 122.479 48.5908 122.479 49.1182L121.424 49.1094C121.424 48.3535 121.775 47.7002 122.479 47.1494C123.182 46.5928 124.046 46.3145 125.071 46.3145C126.132 46.3145 126.967 46.5811 127.576 47.1143C128.191 47.6416 128.508 48.3799 128.525 49.3291V53.8291C128.525 54.749 128.622 55.4375 128.815 55.8945V56H127.69ZM124.386 55.2441C125.089 55.2441 125.716 55.0742 126.267 54.7344C126.823 54.3945 127.228 53.9404 127.479 53.3721V51.2803H125.599C124.55 51.292 123.729 51.4854 123.138 51.8604C122.546 52.2295 122.25 52.7393 122.25 53.3896C122.25 53.9229 122.446 54.3652 122.839 54.7168C123.237 55.0684 123.753 55.2441 124.386 55.2441ZM132.34 46.4902L132.375 48.1162C132.732 47.5303 133.178 47.085 133.711 46.7803C134.244 46.4697 134.833 46.3145 135.478 46.3145C136.497 46.3145 137.256 46.6016 137.754 47.1758C138.252 47.75 138.504 48.6113 138.51 49.7598V56H137.464V49.751C137.458 48.9014 137.276 48.2686 136.919 47.8525C136.567 47.4365 136.002 47.2285 135.223 47.2285C134.572 47.2285 133.995 47.4336 133.491 47.8438C132.993 48.248 132.624 48.7959 132.384 49.4873V56H131.338V46.4902H132.34ZM144.249 54.4883L147.026 46.4902H148.16L144.1 57.6172L143.889 58.1094C143.367 59.2637 142.562 59.8408 141.472 59.8408C141.22 59.8408 140.95 59.7998 140.663 59.7178L140.654 58.8477L141.199 58.9004C141.715 58.9004 142.131 58.7715 142.447 58.5137C142.77 58.2617 143.042 57.8252 143.265 57.2041L143.73 55.9209L140.145 46.4902H141.296L144.249 54.4883Z" fill="#F2F2F2"/>
<defs>
<linearGradient id="paint0_linear" x1="52" y1="32" x2="17" y2="45" gradientUnits="userSpaceOnUse">
<stop stop-color="#FC4D36"/>
<stop offset="1" stop-color="#DD2476"/>
</linearGradient>
</defs>
</svg>
