<svg width="133" height="127" viewBox="0 0 133 127" fill="none" xmlns="http://www.w3.org/2000/svg">
<path d="M24.8173 26.4653L20.9802 27.4619V82.2311L68.4108 109.616L115.841 82.2311V27.4619L112.004 26.4653H24.8173Z" fill="#646465"/>
<path d="M68.4109 26.4653V109.616L115.841 82.2311V27.4619L112.004 26.4653H68.4109Z" fill="#464751"/>
<path d="M103.647 27.4616L68.4108 54.8358L20.9802 27.4638V27.4616L68.4108 0.0770264L103.647 27.4616Z" fill="#6D6E77"/>
<path d="M115.841 27.4616V27.4638L68.4109 54.8358V0.0770264L115.841 27.4616Z" fill="#52545F"/>
<path d="M132.146 73.5659C132.289 73.0324 131.971 72.4843 131.438 72.3418L122.743 70.0194C122.209 69.8769 121.661 70.194 121.519 70.7275C121.376 71.2611 121.693 71.8092 122.227 71.9517L129.956 74.016L127.891 81.7451C127.749 82.2787 128.066 82.8267 128.6 82.9693C129.133 83.1118 129.681 82.7947 129.824 82.2612L132.146 73.5659ZM68.9113 110.481L131.681 74.1735L130.679 72.4423L67.9099 108.75L68.9113 110.481Z" fill="url(#paint0_linear)"/>
<path d="M68.4109 109.616L68.4109 32.0771M68.4109 32.0771L61.0771 38.231M68.4109 32.0771L75.8463 38.231" stroke="url(#paint1_linear)" stroke-width="2" stroke-linecap="round" stroke-linejoin="round"/>
<path d="M5.38338 72.3418C4.8498 72.4843 4.53277 73.0324 4.67528 73.5659L6.9976 82.2612C7.14012 82.7947 7.6882 83.1118 8.22178 82.9693C8.75536 82.8268 9.07238 82.2787 8.92988 81.7451L6.86559 74.016L14.5947 71.9517C15.1283 71.8092 15.4453 71.2611 15.3028 70.7275C15.1603 70.194 14.6122 69.8769 14.0786 70.0194L5.38338 72.3418ZM68.9113 108.75L6.14212 72.4423L5.14071 74.1735L67.9099 110.481L68.9113 108.75Z" fill="url(#paint2_linear)"/>
<defs>
<linearGradient id="paint0_linear" x1="50.9181" y1="74.7236" x2="108.69" y2="48.4798" gradientUnits="userSpaceOnUse">
<stop stop-color="#FF512F"/>
<stop offset="1" stop-color="#DD2476"/>
</linearGradient>
<linearGradient id="paint1_linear" x1="21.5894" y1="109.452" x2="24.2847" y2="39.7128" gradientUnits="userSpaceOnUse">
<stop stop-color="#FF512F"/>
<stop offset="1" stop-color="#DD2476"/>
</linearGradient>
<linearGradient id="paint2_linear" x1="44.7629" y1="127.222" x2="12.6583" y2="79.7008" gradientUnits="userSpaceOnUse">
<stop stop-color="#FF512F"/>
<stop offset="1" stop-color="#DD2476"/>
</linearGradient>
</defs>
</svg>
