<svg width="98" height="97" viewBox="0 0 98 97" fill="none" xmlns="http://www.w3.org/2000/svg">
<path d="M66.1168 67.9719H71.7577C73.3166 67.9719 74.5781 66.7105 74.5781 65.1515C74.5781 63.5926 73.3166 62.3311 71.7577 62.3311H67.8602L65.0398 56.6903L62.2344 51.0494L58.7324 56.6903L63.5937 66.413C64.0732 67.3688 65.0481 67.9719 66.1168 67.9719Z" fill="#6D6E77"/>
<path d="M86.9368 62.3311H83.0394C81.4805 62.3311 80.219 63.5926 80.219 65.1515C80.219 66.7105 81.4805 67.9719 83.0394 67.9719H88.6802C89.749 67.9719 90.7239 67.3688 91.2032 66.413L96.0647 56.6903L93.0271 51.0494L89.7573 56.6903L86.9368 62.3311Z" fill="#464751"/>
<path d="M77.3985 17.2043H71.7577V45.4085H77.3985H83.0394V17.2043H77.3985Z" fill="#6D6E77"/>
<path d="M77.3986 17.2043H83.0394V45.4085H77.3986V17.2043Z" fill="#464751"/>
<path d="M20.4261 20.0248H31.7078V59.5106H20.4261V20.0248Z" fill="#6D6E77"/>
<path d="M26.0669 20.0248H31.7077V59.5106H26.0669V20.0248Z" fill="#464751"/>
<path d="M45.8098 70.7924V93.7318H6.32397V70.7924C6.32397 59.9056 15.1801 51.0494 26.0669 51.0494C36.9537 51.0494 45.8098 59.9056 45.8098 70.7924Z" fill="url(#paint0_linear)"/>
<path d="M45.8098 70.7924V93.7318H26.0669V51.0494C36.9537 51.0494 45.8098 59.9056 45.8098 70.7924Z" fill="url(#paint1_linear)"/>
<path d="M51.4507 93.7317C51.4507 95.3109 50.2099 96.5521 48.6303 96.5521H3.50361C1.92398 96.5521 0.871216 95.3109 0.871216 93.7317C0.871216 92.1521 1.92398 90.9113 3.50361 90.9113H48.6303C50.2099 90.9113 51.4507 92.1521 51.4507 93.7317Z" fill="#6D6E77"/>
<path d="M26.067 62.3311C21.3849 62.3311 17.6057 66.1102 17.6057 70.7923C17.6057 75.474 21.3849 79.2536 26.067 79.2536C30.749 79.2536 34.5282 75.474 34.5282 70.7923C34.5282 66.1102 30.749 62.3311 26.067 62.3311Z" fill="#6D6E77"/>
<path d="M28.8873 8.74316H74.5781V20.0248H28.8873V8.74316Z" fill="#464751"/>
<path d="M26.0669 28.486C33.8553 28.486 40.169 22.1723 40.169 14.384C40.169 6.59558 33.8553 0.28186 26.0669 0.28186C18.2786 0.28186 11.9648 6.59558 11.9648 14.384C11.9648 22.1723 18.2786 28.486 26.0669 28.486Z" fill="url(#paint2_linear)"/>
<path d="M40.169 14.384C40.169 6.59546 33.8554 0.28186 26.0669 0.28186V28.486C33.8554 28.486 40.169 22.1721 40.169 14.384Z" fill="url(#paint3_linear)"/>
<path d="M26.0669 17.2043C27.6246 17.2043 28.8873 15.9416 28.8873 14.3839C28.8873 12.8262 27.6246 11.5635 26.0669 11.5635C24.5092 11.5635 23.2465 12.8262 23.2465 14.3839C23.2465 15.9416 24.5092 17.2043 26.0669 17.2043Z" fill="#6D6E77"/>
<path d="M28.8873 14.3839C28.8873 12.8263 27.6245 11.5635 26.0669 11.5635V17.2043C27.6245 17.2043 28.8873 15.9415 28.8873 14.3839Z" fill="#464751"/>
<path d="M77.3986 28.486C85.187 28.486 91.5007 22.1723 91.5007 14.384C91.5007 6.59558 85.187 0.28186 77.3986 0.28186C69.6102 0.28186 63.2965 6.59558 63.2965 14.384C63.2965 22.1723 69.6102 28.486 77.3986 28.486Z" fill="url(#paint4_linear)"/>
<path d="M91.5006 14.384C91.5006 6.59546 85.187 0.28186 77.3986 0.28186V28.486C85.187 28.486 91.5006 22.1721 91.5006 14.384Z" fill="url(#paint5_linear)"/>
<path d="M77.3987 17.2043C78.9563 17.2043 80.2191 15.9416 80.2191 14.3839C80.2191 12.8262 78.9563 11.5635 77.3987 11.5635C75.841 11.5635 74.5782 12.8262 74.5782 14.3839C74.5782 15.9416 75.841 17.2043 77.3987 17.2043Z" fill="#6D6E77"/>
<path d="M80.219 14.3839C80.219 12.8263 78.9562 11.5635 77.3986 11.5635V17.2043C78.9562 17.2043 80.219 15.9415 80.219 14.3839Z" fill="#464751"/>
<path d="M26.0669 79.2536V62.3311C30.749 62.3311 34.5282 66.1102 34.5282 70.7923C34.5282 75.474 30.749 79.2536 26.0669 79.2536Z" fill="#464751"/>
<path d="M51.4507 93.7317C51.4507 95.3109 50.2099 96.5521 48.6302 96.5521H26.0669V90.9113H48.6302C50.2099 90.9113 51.4507 92.1521 51.4507 93.7317Z" fill="#464751"/>
<path d="M96.8775 52.7657C96.8559 52.7151 91.2032 41.3266 91.2032 41.3266C90.7239 40.3709 89.749 39.7677 88.6802 39.7677H77.3985H66.1169C65.0481 39.7677 64.0732 40.3709 63.5939 41.3266C63.0135 42.4958 65.7006 37.0919 57.9196 52.7657C57.5866 53.537 57.5778 54.3801 57.9531 55.1313L58.7326 56.6902H65.04H77.3987H89.7574H96.0648L96.8444 55.1313C97.2097 54.3993 97.2255 53.571 96.8775 52.7657Z" fill="url(#paint6_linear)"/>
<path d="M96.0647 56.6902L96.8443 55.1313C97.21 54.3993 97.2258 53.571 96.8777 52.7657C96.8561 52.7151 91.2034 41.3266 91.2034 41.3266C90.7242 40.3709 89.7492 39.7677 88.6805 39.7677H77.3988V56.6902H89.7575H96.0647Z" fill="url(#paint7_linear)"/>
<defs>
<linearGradient id="paint0_linear" x1="16.6342" y1="-1.38885" x2="57.548" y2="7.44277" gradientUnits="userSpaceOnUse">
<stop stop-color="#FF512F"/>
<stop offset="1" stop-color="#DD2476"/>
</linearGradient>
<linearGradient id="paint1_linear" x1="31.222" y1="-1.38885" x2="52.3856" y2="0.895326" gradientUnits="userSpaceOnUse">
<stop stop-color="#FF512F"/>
<stop offset="1" stop-color="#DD2476"/>
</linearGradient>
<linearGradient id="paint2_linear" x1="19.3293" y1="-34.369" x2="48.3359" y2="-27.6008" gradientUnits="userSpaceOnUse">
<stop stop-color="#FF512F"/>
<stop offset="1" stop-color="#DD2476"/>
</linearGradient>
<linearGradient id="paint3_linear" x1="29.7491" y1="-34.369" x2="44.8367" y2="-32.6088" gradientUnits="userSpaceOnUse">
<stop stop-color="#FF512F"/>
<stop offset="1" stop-color="#DD2476"/>
</linearGradient>
<linearGradient id="paint4_linear" x1="70.6609" y1="-34.369" x2="99.6675" y2="-27.6008" gradientUnits="userSpaceOnUse">
<stop stop-color="#FF512F"/>
<stop offset="1" stop-color="#DD2476"/>
</linearGradient>
<linearGradient id="paint5_linear" x1="81.0808" y1="-34.369" x2="96.1683" y2="-32.6088" gradientUnits="userSpaceOnUse">
<stop stop-color="#FF512F"/>
<stop offset="1" stop-color="#DD2476"/>
</linearGradient>
<linearGradient id="paint6_linear" x1="67.9736" y1="18.9772" x2="100.991" y2="36.9405" gradientUnits="userSpaceOnUse">
<stop stop-color="#FF512F"/>
<stop offset="1" stop-color="#DD2476"/>
</linearGradient>
<linearGradient id="paint7_linear" x1="82.5506" y1="18.9772" x2="102.472" y2="24.3969" gradientUnits="userSpaceOnUse">
<stop stop-color="#FF512F"/>
<stop offset="1" stop-color="#DD2476"/>
</linearGradient>
</defs>
</svg>
